<svg id="Layer_1" data-name="Layer 1" viewBox="0 0 1004.47 642.83">
									<defs>
										<style>.cls-1,.cls-2{fill:#c8c8c8;stroke:#fff;fill-rule:evenodd;}.cls-2{stroke-width:1.5px;}.cls-3{isolation:isolate;}.cls-4{fill:#c4132e;}

											.st0{fill-rule:evenodd;clip-rule:evenodd;fill:#C8C8C8;stroke:#FFFFFF;}
											.st1{fill-rule:evenodd;clip-rule:evenodd;fill:#C8C8C8;stroke:#FFFFFF;stroke-width:1.5;}
											.st2{fill-rule:evenodd;clip-rule:evenodd;fill:#E11932;fill-opacity:0.3965;stroke:#FFFFFF;stroke-width:3;}
											.st3{fill:none;stroke:#DCDCDC;stroke-width:3;}
											.st4{fill:none;stroke:#F0F0F0;stroke-width:3;}
											.st5{enable-background:new    ;}
											.st6{fill:#C4132E;}
										</style>
									</defs>
									<a href="#north-america" class="js-map-link" id="North-America">
										<path id="Combined-Shape" class="cls-1" d="M170.13,357.3l-3.4,9.7,5,7.8.6,9.1-4,5.1-8.2-7.9,2.4-20.5Zm9.9,17.8,5.6,5.6-12.5,2.8-.6-8.4Zm-18.9-10.7-1.8,15.9-5.4-5.1ZM130.63,334l9.2,4,7.3,24.3-7.4,1.2-10.3-10.3Zm21.7-4.3V353l16.9,3.8-7.2,3.1-14,2.3-7.3-24.2,7.7-3.5Zm-22.6,4.1-1.2,18.7-21.9-13.4-2-1.4Zm23.4-4.9,9,1.7-9,20.7Zm-33.3-46.8,29.1,16.4-15.2,17.6-3.9,16.9-25.7,4.1Zm-.8-.3-15.7,55L90.53,328l-6.2-9.9-8.7-8.8V281.8Zm77-41.9-1.2,40.7-9.6,10.5-.1,14.5-10.7,9.8V292.6l-14,.7Zm-.9-.2-35.8,53.9-9.7,4.2-29.2-16.4Zm-79.7,9.9L119,281H76.33Zm-44.8-20.7,44.3,19.9-39.7,31.9L63,260.6V239Zm72.2-21.8,52.8,31.2-75.3,42.1Zm54.1,32.5,17.2,20.6-18.3,19.5Zm-55.8-30.1-21.4,69.8-3.5-30.5Zm82.5-2.2,12.5,32.1-6.8,14.1-14.5,6.1-17.7-21.2ZM92.13,200l49.6,6.8-26,41Zm-.8.3,23.5,47.5-43.7-19.6,1.2-1.6Zm133.1,6.8,27.3,5.9v26h-14.9ZM238,159.4l28.2,16.5,2.5,13.5,5,12.5,9.2,8.1-5.4,6.5.5,9.7,4.9,6.8-5.6,5.6-7.1-11.2,6.2-16.1-24.1.7-27.9-6Zm-15.2,47.5-26.4,30.9-52.3-30.9Zm-37.3-42.5,37.2,41.6h-79.1Zm-48.9.2,5.5,41.4-49.5-6.8Zm100.6-5.3-13.7,46.3-37.1-41.5Zm-52.7,4.9-41.7,41.3-5.4-41.3ZM74.33,148.7l61.6,15.3-44.5,34.8-15.9-19.6Zm94.5-30.9,16.1,45.5h-47.2Zm73.3-9.8,21.4,21.1-14.8,19.4-11.1,9.9-51.1,4.9,22-28L219,122.6l12.8,12.6,6.2-12.9-5.8-8.2Zm-111-26.9,5.4,82.1-61.8-15.3Zm38.6,36.6,37.8,17.4-21.8,27.8Zm-37.8-36.6,36.5,35.8-31.1,45.6Zm132,49,5.4,10.1,3,17.9-22.5-9.5ZM83.83,80.6l-10.2,66.6L33,105.3Zm.9-.4,45.8.2-55.9,66.3Zm186.9,39.9,7.7,9.5,3.5,10h-12.9l-5.5-10.2ZM7.23,99.6l24.4,5.8-17.9,33.2L.53,124.2l4.9-21Zm25.2,6.3,35.2,36.4L54.23,131l-20.9-3.2L15,138.3ZM203,103.7l4.6,30.5L170,116.9Zm28.5,10.9,5.8,7.3L232,134.2l-12.3-12.3Zm-27.5-10,14.4,17.3-9.9,12Zm30.7-18.1,7.1,13.7,20.1,9.5,9.1,9.7-6.9,9.1-21.5-21.2-18.5.3ZM38.93,75.6l-6.9,29L7.63,98.8l7.8-16.6Zm.9-.2,43,4.6-49.9,24.3Zm29.7-25.5,24.6,21.6,33.4,8.1-43.2-.1-43.9-4.7Zm-1.2-.2L39.73,74.2l-9-24.5Z" transform="translate(0.02 0.05)"></path>

										<g class="cls-3"><path class="cls-4" d="M115.56,159.64l3.5,5.5a7.46,7.46,0,0,1,.7,1.2,7.26,7.26,0,0,1,.5,1.2l.2-.1a11.08,11.08,0,0,1-.2-1.9v-5.8h2.1v10.6h-2.3l-3.7-5.8a21.16,21.16,0,0,1-1.1-2.1h-.2a14.92,14.92,0,0,1,.2,2.1v5.7h-2.1v-10.6Z" transform="translate(0.02 0.05)"></path><path class="cls-4" d="M129.86,162.54a3.67,3.67,0,0,1,2,3.6,4.77,4.77,0,0,1-.5,2.2,3.61,3.61,0,0,1-1.5,1.5,4.66,4.66,0,0,1-4.2,0,3.61,3.61,0,0,1-1.5-1.5,4.19,4.19,0,0,1-.5-2.2,4.77,4.77,0,0,1,.5-2.2,2.94,2.94,0,0,1,1.5-1.4,4.66,4.66,0,0,1,4.2,0Zm-.7,5.5a3.56,3.56,0,0,0,.5-1.9,3.2,3.2,0,0,0-.5-1.8,1.51,1.51,0,0,0-1.4-.7h-.1a1.36,1.36,0,0,0-1.3.7,3.45,3.45,0,0,0-.5,1.8,3.81,3.81,0,0,0,.4,1.9,1.36,1.36,0,0,0,1.3.7h.1A1.34,1.34,0,0,0,129.16,168Z" transform="translate(0.02 0.05)"></path><path class="cls-4" d="M137.16,164.34a2.23,2.23,0,0,0-1.3.4,2,2,0,0,0-.4,1.4v4h-2.2v-8h2.1v.9a1.42,1.42,0,0,1-.2.6l.3.1a2.54,2.54,0,0,1,.9-1.3,3.51,3.51,0,0,1,1.6-.3h.4v2.3C138,164.44,137.56,164.34,137.16,164.34Z" transform="translate(0.02 0.05)"></path><path class="cls-4" d="M143.66,170.24a1,1,0,0,0-.4.1,2.48,2.48,0,0,1-.9.1,2.27,2.27,0,0,1-1.9-.8,3.4,3.4,0,0,1-.6-2.2v-3.6h-1.2v-1.6h1.2v-2.3h2.2v2.3h1.5v1.6h-1.5v3.6a1.55,1.55,0,0,0,.2.8.78.78,0,0,0,.7.3h.7Z" transform="translate(0.02 0.05)"></path><path class="cls-4" d="M147,159.14v3.8a3.93,3.93,0,0,1-.2.6l.3.1a2.59,2.59,0,0,1,1-1.1,3.29,3.29,0,0,1,1.7-.4,2.49,2.49,0,0,1,1.9.7,2.67,2.67,0,0,1,.7,2.1v5.5h-2.2v-5.1a1.38,1.38,0,0,0-1.5-1.5h0a1.55,1.55,0,0,0-1.7,1.5v4.9h-2.2v-11.1Z" transform="translate(0.02 0.05)"></path><path class="cls-4" d="M165.06,167.74h-4.2l-.9,2.5h-2.3l4-10.6h2.6l4.1,10.6h-2.3Zm-.5-1.6-1.1-3.1a8.33,8.33,0,0,1-.4-1.5h-.3a8.33,8.33,0,0,1-.4,1.5l-1,3.1Z" transform="translate(0.02 0.05)"></path><path class="cls-4" d="M180.56,162.64a2.54,2.54,0,0,1,.7,2.1v5.5h-2.2v-5.1a1.25,1.25,0,0,0-.4-1.1,1.69,1.69,0,0,0-1-.3h-.1a1.28,1.28,0,0,0-1,.4,1.59,1.59,0,0,0-.4,1.2v4.9h-2.1v-5a1.25,1.25,0,0,0-.4-1.1,1.69,1.69,0,0,0-1-.3h-.1a1.28,1.28,0,0,0-1,.4,1.59,1.59,0,0,0-.4,1.2v4.8h-2.1v-8h2.2v.7a1.69,1.69,0,0,1-.2.5l.3.1a2.44,2.44,0,0,1,.9-1.1,3.31,3.31,0,0,1,1.5-.4,2.41,2.41,0,0,1,1.5.4,2.26,2.26,0,0,1,.8,1.1h.2a2,2,0,0,1,.9-1.1,2.73,2.73,0,0,1,1.6-.4A2.79,2.79,0,0,1,180.56,162.64Z" transform="translate(0.02 0.05)"></path><path class="cls-4" d="M188.76,162.54a2.94,2.94,0,0,1,1.4,1.5,5.45,5.45,0,0,1,.5,2.2v.4h-5.9a2,2,0,0,0,.6,1.5,1.82,1.82,0,0,0,1.4.6h.1a1.59,1.59,0,0,0,1.2-.4,2.36,2.36,0,0,0,.6-.9h2.2a2.63,2.63,0,0,1-.7,1.5,4,4,0,0,1-1.5,1,5.85,5.85,0,0,1-1.9.4,4.77,4.77,0,0,1-2.2-.5,2.94,2.94,0,0,1-1.4-1.5,5.45,5.45,0,0,1-.5-2.2,4.77,4.77,0,0,1,.5-2.2,4,4,0,0,1,1.4-1.5,4.65,4.65,0,0,1,2.1-.5A8.3,8.3,0,0,1,188.76,162.54Zm-.3,2.8a2.54,2.54,0,0,0-.5-1.3,1.73,1.73,0,0,0-1.3-.5h-.1a2.11,2.11,0,0,0-1.3.5,2,2,0,0,0-.6,1.3Z" transform="translate(0.02 0.05)"></path><path class="cls-4" d="M195.76,164.34a2.23,2.23,0,0,0-1.3.4,2,2,0,0,0-.4,1.4v4h-2.2v-8H194v.9a1.42,1.42,0,0,1-.2.6l.3.1a2.54,2.54,0,0,1,.9-1.3,3.51,3.51,0,0,1,1.6-.3h.4v2.3C196.66,164.44,196.26,164.34,195.76,164.34Z" transform="translate(0.02 0.05)"></path><path class="cls-4" d="M198.36,160.84a1.23,1.23,0,0,1-.4-.8.91.91,0,0,1,.4-.8,1.27,1.27,0,0,1,.9-.4,1.22,1.22,0,0,1,.9.4,1.23,1.23,0,0,1,.4.8.91.91,0,0,1-.4.8,1.27,1.27,0,0,1-.9.4A1,1,0,0,1,198.36,160.84Zm1.9,1.4v8h-2.2v-8Z" transform="translate(0.02 0.05)"></path><path class="cls-4" d="M208.76,168.84a3.82,3.82,0,0,1-3.3,1.6,5.45,5.45,0,0,1-2.2-.5,2.94,2.94,0,0,1-1.4-1.5,5.45,5.45,0,0,1-.5-2.2,4.77,4.77,0,0,1,.5-2.2,3.16,3.16,0,0,1,1.4-1.4,4.65,4.65,0,0,1,2.1-.5,4.46,4.46,0,0,1,2.6.8,3.17,3.17,0,0,1,1.3,2.3H207a1.6,1.6,0,0,0-.5-1,1.5,1.5,0,0,0-1.1-.4h-.1a1.62,1.62,0,0,0-1.4.7,3.45,3.45,0,0,0-.5,1.8,3.56,3.56,0,0,0,.5,1.9,1.51,1.51,0,0,0,1.4.7h.1a1.71,1.71,0,0,0,1.7-1.7h2.3A2.66,2.66,0,0,1,208.76,168.84Z" transform="translate(0.02 0.05)"></path><path class="cls-4" d="M217,162.64a2.41,2.41,0,0,1,.9,2.2V168c0,.2,0,.3.1.4s.2.1.4.1h.4v1.7a6.15,6.15,0,0,1-1.3.1,1.1,1.1,0,0,1-1.3-1.3v-.1H216a2,2,0,0,1-1.1,1.1,3.17,3.17,0,0,1-1.6.4,3.45,3.45,0,0,1-1.8-.5,2,2,0,0,1-.9-1.8,2.32,2.32,0,0,1,.9-1.9,4.73,4.73,0,0,1,1.9-.6l.7-.1a10.63,10.63,0,0,0,1.4-.3.67.67,0,0,0,.4-.7.75.75,0,0,0-.4-.7,1.64,1.64,0,0,0-1-.2,1.5,1.5,0,0,0-1.1.4,1.6,1.6,0,0,0-.5,1h-2.2a2.66,2.66,0,0,1,1-2.1,4.33,4.33,0,0,1,2.7-.7A3.53,3.53,0,0,1,217,162.64Zm-2.6,4.1-.6.1a5.13,5.13,0,0,0-1,.4,1,1,0,0,0,0,1.4,1.22,1.22,0,0,0,.9.3,2.39,2.39,0,0,0,1.4-.5,2.11,2.11,0,0,0,.6-1.6v-1C215.56,166.24,215.06,166.54,214.36,166.74Z" transform="translate(0.02 0.05)"></path>
										</g>

										<g id="Group-11-Copy" class="map-link-circle" transform="translate(398.000000, 329.000000)">
											<circle class="pulse-circle" cx="-199.7" cy="-95.8" r="30"></circle>
											<circle class="st2 big-circle" cx="-199.7" cy="-95.8" r="24"></circle>
											<circle class="st4" cx="-199.3" cy="-95.3" r="3.9"></circle>
										</g>
									</a>
									<g id="Group">
										<a href="#south-america" class="js-map-link" id="South-America">
											<path class="cls-2" d="M245.23,623l23,19.1-27.6-6.6Zm-28.1-10.1,27.6,9.9-4.6,12.5Zm29.7-18.2-2,27.5-28.2-10.1Zm.6.2,7.7,10.3-9.7,16.1Zm-30.2-6.1,29.2,5.4-30.1,17.4Zm1.1-28.6,28.1,33.5-29.2-5.4Zm.6-.2,35.5,10.7-7.4,22.8Zm24.5-18.3,10.9,28.4-35.6-10.7Zm.6,0,20.5,3.7,5.4,10.7-15.1,14Zm-30.4-23.2,29.5,22.7-24.8,17.7Zm51.6,27,13.1,2.3-3.6,3.8-4.3,4Zm-21-41.5,51.7,25.1-17.1,18.2-13.9-2.5Zm-.4.5,20.4,40.1-20.4-3.6Zm-.5-.7v36.9l-29.5-22.8Zm1.6-.1,51.8,2-.7,22.8Zm-32.1-20.6,30.2,20.2-29.5,14.1Zm31-11.4,52.2,33.4-52.2-2Zm42-14.2,16.7,25,18.3,13.7-23.5,8.7Zm-.9-1.1,11.7,48.4-52.4-33.5Zm-41.6,15.2v31.2l-30.2-20.2Zm85.9-13.9-8,38.2-18-13.4Zm-102.4-11.5-14.5,35.9-24.9-15.5Zm58.9,10.1,43.3.8-26.2,25Zm-58.2-10.1,15.7,24.8-30.1,11Zm50.5-23.8-34.4,48.2-15.7-24.9Zm.7,0,6.1,33.4-40.4,14.8ZM201,433l25.7,12.6-39.3,20.3Zm-.6-.1-13.6,32.9-13.4-30.2Zm120.8-33.4,8.2,57.1-43.7-.9Zm.7.8,22,42.6-14,13.3Zm-1.4-.9-35.2,55.8-6.1-33.4Zm-80.2,24.3-13,21.5-25.5-12.5Zm37.1-1.7-49.3,22.9,12.9-21.4Zm44.5-22.9,22,5.3v37.4Zm-139.1.3,17.6,32.9-27.1,2.7Zm25.6-15.3,32,39-39.2,9.2Zm-.6-.1-7.1,47.7-17.7-33Zm57.7,6,13,31.5-36.9,1.5Zm-56.7-6.2,30.8,3.4,1,35.3Zm31.4,3.4,22.9,2,2,.4-23.8,32.8Zm25.8,2.6,27.2,4.9L278.93,421Zm27.8,5,26.7,4L279.73,421Zm-93.9-28.9,7.9,17.4-24.7,14.8,3.3-18Zm50,10.6,12.4,12-21.8-2Zm-25.1-10.7,14.5,20.7-30.5-3.3Zm12.5-1.5,12.2,11.8-9.6,10.3-15.2-21.7Zm-12.3.4-16.7,18.1-7.8-17.2Z" transform="translate(0.02 0.05)"></path>

											<g class="cls-3">
												<path class="cls-4" d="M211.66,447.34a2.35,2.35,0,0,0,.6,1.7,2.44,2.44,0,0,0,1.8.6,2.12,2.12,0,0,0,1.4-.4,1.1,1.1,0,0,0,.6-1,1.88,1.88,0,0,0-.2-.8,2.09,2.09,0,0,0-.6-.4,4.65,4.65,0,0,0-.9-.3l-1.6-.4a4.16,4.16,0,0,1-2.2-1.1,2.74,2.74,0,0,1,.4-4.2,5.57,5.57,0,0,1,3-.8,5.09,5.09,0,0,1,2.2.4,3.55,3.55,0,0,1,2.3,3.1h-2.4a1.91,1.91,0,0,0-.7-1.4,2,2,0,0,0-1.5-.5,2.77,2.77,0,0,0-1.3.3.87.87,0,0,0-.5.9c0,.7.5,1.1,1.6,1.3l1.8.4c2,.4,3.1,1.5,3.1,3.1a2.35,2.35,0,0,1-.6,1.7,3.27,3.27,0,0,1-1.5,1.1,5.38,5.38,0,0,1-2.2.4,5.29,5.29,0,0,1-3.4-1,3.91,3.91,0,0,1-1.4-3h2.2Z" transform="translate(0.02 0.05)"></path><path class="cls-4" d="M225.36,443.54a3.67,3.67,0,0,1,2,3.6,4.77,4.77,0,0,1-.5,2.2,3.61,3.61,0,0,1-1.5,1.5,4.66,4.66,0,0,1-4.2,0,3.61,3.61,0,0,1-1.5-1.5,4.19,4.19,0,0,1-.5-2.2,4.77,4.77,0,0,1,.5-2.2,2.94,2.94,0,0,1,1.5-1.4,4.65,4.65,0,0,1,2.1-.5A3.64,3.64,0,0,1,225.36,443.54Zm-.7,5.5a3.56,3.56,0,0,0,.5-1.9,3.2,3.2,0,0,0-.5-1.8,1.51,1.51,0,0,0-1.4-.7h-.1a1.36,1.36,0,0,0-1.3.7,3.45,3.45,0,0,0-.5,1.8,3.81,3.81,0,0,0,.4,1.9,1.36,1.36,0,0,0,1.3.7h.1A1.58,1.58,0,0,0,224.66,449Z" transform="translate(0.02 0.05)"></path><path class="cls-4" d="M233.66,451.24V451a.75.75,0,0,1,.1-.5,1.69,1.69,0,0,1,.2-.5l-.3-.1a3.13,3.13,0,0,1-.9,1.1,3.06,3.06,0,0,1-1.7.4,2.49,2.49,0,0,1-1.9-.7,2.54,2.54,0,0,1-.7-2.1v-5.4h2.2v5.1a1.05,1.05,0,0,0,.4,1,1.78,1.78,0,0,0,1,.4h0a1.5,1.5,0,0,0,1.1-.4,1.61,1.61,0,0,0,.5-1.1v-4.9h2.2v8h-2.2Z" transform="translate(0.02 0.05)"></path><path class="cls-4" d="M241.66,451.14a1,1,0,0,0-.4.1,2.48,2.48,0,0,1-.9.1,2.27,2.27,0,0,1-1.9-.8,3.4,3.4,0,0,1-.6-2.2v-3.6h-1.2v-1.6h1.2v-2.3h2.2v2.3h1.5v1.6h-1.5v3.6a1.55,1.55,0,0,0,.2.8.78.78,0,0,0,.7.3h.7v1.7Z" transform="translate(0.02 0.05)"></path><path class="cls-4" d="M245.06,440v3.8a3.93,3.93,0,0,1-.2.6l.3.1a2.59,2.59,0,0,1,1-1.1,3.29,3.29,0,0,1,1.7-.4,2.49,2.49,0,0,1,1.9.7,2.67,2.67,0,0,1,.7,2.1v5.5h-2.2v-5.1a1.38,1.38,0,0,0-1.5-1.5h0a1.55,1.55,0,0,0-1.7,1.5v4.9h-2.2V440Z" transform="translate(0.02 0.05)"></path><path class="cls-4" d="M263.16,448.74H259l-.9,2.5h-2.3l4-10.6h2.6l4.1,10.6h-2.4Zm-.5-1.6-1.1-3.1a8.33,8.33,0,0,1-.4-1.5h-.3a8.33,8.33,0,0,1-.4,1.5l-1,3.1Z" transform="translate(0.02 0.05)"></path><path class="cls-4" d="M278.56,443.64a2.54,2.54,0,0,1,.7,2.1v5.5h-2.2v-5.1a1.25,1.25,0,0,0-.4-1.1,1.69,1.69,0,0,0-1-.3h-.1a1.28,1.28,0,0,0-1,.4,1.59,1.59,0,0,0-.4,1.2v4.9H272v-5a1.25,1.25,0,0,0-.4-1.1,1.69,1.69,0,0,0-1-.3h-.1a1.28,1.28,0,0,0-1,.4,1.59,1.59,0,0,0-.4,1.2v4.8h-2.2v-8h2.2v.7a1.69,1.69,0,0,1-.2.5l.3.1a2.44,2.44,0,0,1,.9-1.1,3.31,3.31,0,0,1,1.5-.4,2.41,2.41,0,0,1,1.5.4,2.26,2.26,0,0,1,.8,1.1h.2a2,2,0,0,1,.9-1.1,2.73,2.73,0,0,1,1.6-.4A2.65,2.65,0,0,1,278.56,443.64Z" transform="translate(0.02 0.05)"></path><path class="cls-4" d="M286.76,443.54a2.94,2.94,0,0,1,1.4,1.5,5.45,5.45,0,0,1,.5,2.2v.4h-5.9a2,2,0,0,0,.6,1.5,1.82,1.82,0,0,0,1.4.6h.1a1.59,1.59,0,0,0,1.2-.4,2.36,2.36,0,0,0,.6-.9h2.2a2.63,2.63,0,0,1-.7,1.5,4,4,0,0,1-1.5,1,5.85,5.85,0,0,1-1.9.4,4.77,4.77,0,0,1-2.2-.5,2.94,2.94,0,0,1-1.4-1.5,5.45,5.45,0,0,1-.5-2.2,4.77,4.77,0,0,1,.5-2.2,4,4,0,0,1,1.4-1.5,4.29,4.29,0,0,1,4.2.1Zm-.2,2.8a2.54,2.54,0,0,0-.5-1.3,1.73,1.73,0,0,0-1.3-.5h-.1a2.11,2.11,0,0,0-1.3.5,2,2,0,0,0-.6,1.3Z" transform="translate(0.02 0.05)"></path><path class="cls-4" d="M293.86,445.34a2.23,2.23,0,0,0-1.3.4,2,2,0,0,0-.4,1.4v4H290v-8h2.1v.9a1.42,1.42,0,0,1-.2.6l.3.1a2.54,2.54,0,0,1,.9-1.3,3.51,3.51,0,0,1,1.6-.3h.4v2.3A4.12,4.12,0,0,0,293.86,445.34Z" transform="translate(0.02 0.05)"></path><path class="cls-4" d="M296.36,441.84a1.23,1.23,0,0,1-.4-.8.91.91,0,0,1,.4-.8,1.27,1.27,0,0,1,.9-.4,1.22,1.22,0,0,1,.9.4,1.23,1.23,0,0,1,.4.8.91.91,0,0,1-.4.8,1.27,1.27,0,0,1-.9.4A1.49,1.49,0,0,1,296.36,441.84Zm2,1.4v8h-2.2v-8Z" transform="translate(0.02 0.05)"></path><path class="cls-4" d="M306.86,449.84a3.82,3.82,0,0,1-3.3,1.6,5.45,5.45,0,0,1-2.2-.5,2.94,2.94,0,0,1-1.4-1.5,5.45,5.45,0,0,1-.5-2.2,4.77,4.77,0,0,1,.5-2.2,3.16,3.16,0,0,1,1.4-1.4,4.65,4.65,0,0,1,2.1-.5,4.46,4.46,0,0,1,2.6.8,3.17,3.17,0,0,1,1.3,2.3h-2.3a1.6,1.6,0,0,0-.5-1,1.5,1.5,0,0,0-1.1-.4h-.1a1.62,1.62,0,0,0-1.4.7,3.45,3.45,0,0,0-.5,1.8,3.56,3.56,0,0,0,.5,1.9,1.51,1.51,0,0,0,1.4.7h.1a1.71,1.71,0,0,0,1.7-1.7h2.3A2.66,2.66,0,0,1,306.86,449.84Z" transform="translate(0.02 0.05)"></path><path class="cls-4" d="M315.06,443.64a2.41,2.41,0,0,1,.9,2.2V449c0,.2,0,.3.1.4s.2.1.4.1h.4v1.7a6.15,6.15,0,0,1-1.3.1,1.1,1.1,0,0,1-1.3-1.3v-.1h-.2A2,2,0,0,1,313,451a3.17,3.17,0,0,1-1.6.4,3.45,3.45,0,0,1-1.8-.5,2,2,0,0,1-.9-1.8,2.32,2.32,0,0,1,.9-1.9,4.73,4.73,0,0,1,1.9-.6l.7-.1a10.63,10.63,0,0,0,1.4-.3.67.67,0,0,0,.4-.7.75.75,0,0,0-.4-.7,1.64,1.64,0,0,0-1-.2,1.5,1.5,0,0,0-1.1.4,1.6,1.6,0,0,0-.5,1h-2.2a2.66,2.66,0,0,1,1-2.1,4.33,4.33,0,0,1,2.7-.7A3.53,3.53,0,0,1,315.06,443.64Zm-2.6,4-.6.1a5.13,5.13,0,0,0-1,.4,1,1,0,0,0,0,1.4,1.22,1.22,0,0,0,.9.3,2.39,2.39,0,0,0,1.4-.5,2.11,2.11,0,0,0,.6-1.6v-1C313.66,447.24,313.16,447.54,312.46,447.64Z" transform="translate(0.02 0.05)"></path>
											</g>

											<g id="Group-11" transform="translate(425.000000, 646.000000)">
												<circle class="pulse-circle" cx="-199.7" cy="-95.8" r="24"></circle>
												<circle class="st2 big-circle" cx="-199.7" cy="-95.8" r="24"></circle>
												<circle class="st3" cx="-199.3" cy="-95.3" r="3.9"></circle>
											</g>
										</a>
									</g>
									<g id="Group-3" data-name="Group">
										<a href="#africa" class="js-map-link" id="Africa">
											<path class="cls-2" d="M522.67,519.11l32.4,16-32.1,5.8Zm21.4-23.4,11.5,39.1-32.7-16.2Zm.5-.3,37.6,1.4-26,37.9Zm-1.3.2-20.9,22.6-13.3-14.6Zm-8.4-20.7,8.9,20.1-34.4,8Zm-31.2-3.3,30.7,2.9-25.6,28.2Zm59.8,5.2,18.5,19.4-37.1-1.3Zm.9,0,22.1,3.9-3.9,15.1Zm-29-2.1,27.5,2-18.6,18Zm38.4-30.6,12.6,36-22.8-4.1-27.9-2Zm.7.2,28.6,15L587,480Zm-60-6.1,20,35.8-30.8-2.9,3.1-17.1Zm.5-.3,58.2,5.9-38.1,30Zm95-23.5-6.8,44.3-28.8-15.1Zm-46.6-4.6,10.1,33.5-58.2-5.9Zm56-8.2-9.2,11.9-36.1,29.7-10.2-33.6Zm-109,5.7,52.2,2.3-47.9,27.5Zm-.6,0,4.3,29.5-27.7-27Zm-16.4-14.9,15.9,14.5-23.2,2.4Zm1,0,66.3,16.5-50.5-2.2Zm122.2-23.3,3.2,31.9-55.2,7.9Zm-89.7,1.1,35.8,38.6L494,391.71Zm70.9-35.7.2,13.3,18.3,20.7-52.6,40.3-.5-54.9Zm-35.1,19.7.5,54.4-35.9-38.7Zm71.2,14.7-13.6,31.2-3.2-31.2ZM488,356.11l5,35.5H466l-32.4-2.3Zm.6-.1,37.7,13.9-32.7,21.4Zm-87.5-2.8,37.1,10.1-5.7,25.7-16.6-12.9Zm85.7,2.9L433.07,389l5.7-25.6Zm41.9-18.8-2,32.2L489,355.61Zm.6-.1,33.1,16.5-35.2,15.7Zm-93.6-27.8,2.6,53.4L401,352.61Zm33.5,26.9,18.4,19.1-48.1,7.3Zm-33-27.1,32.6,26.6-30,26.6Zm60.4,6.6,31.8,21-39.8,18.3Zm-.6.2-8,39-18.4-19.1Zm65.3,11.1,36,7.1-34,19.1Zm-.6,0,2,26.2-32.9-16.4Zm-147.6-25.3,22.3,7L400.67,352l-1-24.1Zm110.1-9.5,5.4,43.9-31.7-20.9Zm46.2,10.7-8.7,23.5-30.5,9.6Zm-45.6-10.7,25,14.5L529.17,336Zm-50.7,14-4,29-32.3-26.4Zm.5.1,22.2,9-26.2,19.8Zm96.5-3.8,27.2,31-36-7Zm-1.1,0-38.6,32.6,19-28.2Zm-72.9-20.9v33.1l-22.3-9Zm16,.1,10.9,9.9-25.8,22.5Zm-15.4-.5,14.9.3-14.9,32.3Zm-23.1-13.2-.5,37.6-36.6,2.7,26.5-33Zm-42.2,17.6,4.1,22.5-22-6.9Zm30.6-10-25.9,32.2-4.1-22.6Zm100,11.1,7.6,15-19.7,4.5Zm-27.1-7.8,7,8.4,6.8,18.7-24.8-14.4Zm26.6,7.5L549.37,306l-6.8-18.6ZM474.17,268l21.8,13.1-22.3,24.1Zm19.2-.2,2.6,12.6-21.1-12.6Z" transform="translate(0.02 0.05)"></path>

											<g class="cls-3"><path class="cls-4" d="M522.76,361.54h-4.2l-.9,2.5h-2.3l4-10.6H522l4.1,10.6h-2.3Zm-.5-1.6-1.2-3.2a8.33,8.33,0,0,1-.4-1.5h-.3a8.33,8.33,0,0,1-.4,1.5l-1,3.1h3.3Z" transform="translate(0.02 0.05)"></path><path class="cls-4" d="M529.26,355.24v.8h2v1.6h-2V364h-2.2v-6.4h-1.2V356h1.2v-1a2.06,2.06,0,0,1,.7-1.7,3,3,0,0,1,2-.6,11.55,11.55,0,0,1,1.6.2v1.6a3.75,3.75,0,0,0-1-.1C529.56,354.24,529.26,354.64,529.26,355.24Z" transform="translate(0.02 0.05)"></path><path class="cls-4" d="M536.16,358.14a2.23,2.23,0,0,0-1.3.4,2,2,0,0,0-.4,1.4v4h-2.2v-8h2.1v.9a1.42,1.42,0,0,1-.2.6l.3.1a2.54,2.54,0,0,1,.9-1.3,3.51,3.51,0,0,1,1.6-.3h.4v2.3A4.87,4.87,0,0,0,536.16,358.14Z" transform="translate(0.02 0.05)"></path><path class="cls-4" d="M538.66,354.64a1.23,1.23,0,0,1-.4-.8.91.91,0,0,1,.4-.8,1.27,1.27,0,0,1,.9-.4,1.22,1.22,0,0,1,.9.4,1.23,1.23,0,0,1,.4.8.91.91,0,0,1-.4.8,1.21,1.21,0,0,1-1.8,0Zm1.9,1.3v8h-2.2v-8Z" transform="translate(0.02 0.05)"></path><path class="cls-4" d="M549.16,362.64a3.82,3.82,0,0,1-3.3,1.6,5.45,5.45,0,0,1-2.2-.5,2.94,2.94,0,0,1-1.4-1.5,5.45,5.45,0,0,1-.5-2.2,4.77,4.77,0,0,1,.5-2.2,3.16,3.16,0,0,1,1.4-1.4,4.65,4.65,0,0,1,2.1-.5,4.46,4.46,0,0,1,2.6.8,3.17,3.17,0,0,1,1.3,2.3h-2.3a1.6,1.6,0,0,0-.5-1,1.5,1.5,0,0,0-1.1-.4h-.1a1.62,1.62,0,0,0-1.4.7,3.45,3.45,0,0,0-.5,1.8,3.56,3.56,0,0,0,.5,1.9,1.51,1.51,0,0,0,1.4.7h.1a1.71,1.71,0,0,0,1.7-1.7h2.3A5.23,5.23,0,0,1,549.16,362.64Z" transform="translate(0.02 0.05)"></path><path class="cls-4" d="M557.26,356.44a2.41,2.41,0,0,1,.9,2.2v3.2c0,.2,0,.3.1.4s.2.1.4.1h.4V364a6.15,6.15,0,0,1-1.3.1,1.1,1.1,0,0,1-1.3-1.3v-.1h-.2a2,2,0,0,1-1.1,1.1,3.17,3.17,0,0,1-1.6.4,3.45,3.45,0,0,1-1.8-.5,2,2,0,0,1-.9-1.8,2.32,2.32,0,0,1,.9-1.9,4.73,4.73,0,0,1,1.9-.6l.7-.1a10.63,10.63,0,0,0,1.4-.3.67.67,0,0,0,.4-.7.75.75,0,0,0-.4-.7,1.64,1.64,0,0,0-1-.2,1.5,1.5,0,0,0-1.1.4,1.6,1.6,0,0,0-.5,1H551a2.66,2.66,0,0,1,1-2.1,4.33,4.33,0,0,1,2.7-.7A3.53,3.53,0,0,1,557.26,356.44Zm-2.6,4-.6.1a5.13,5.13,0,0,0-1,.4,1,1,0,0,0,0,1.4,1.22,1.22,0,0,0,.9.3,2.39,2.39,0,0,0,1.4-.5,2.11,2.11,0,0,0,.6-1.6v-1C555.86,360,555.36,360.34,554.66,360.44Z" transform="translate(0.02 0.05)"></path>
											</g>

											<g id="Group-11-Copy-2_1_" transform="translate(792.000000, 484.000000)">
												<circle class="pulse-circle" cx="-199.7" cy="-95.8" r="24"></circle>
												<circle class="st2 big-circle" cx="-199.7" cy="-95.8" r="24"></circle>
												<circle class="st3" cx="-199.3" cy="-95.3" r="3.9"></circle>
											</g>
										</a>
									</g>
									<g id="Group-4" data-name="Group">
										<a href="#asia" class="js-map-link" id="Asia">
											<path class="cls-2" d="M831.88,388.13l-.3,18.7L815.18,392Zm-16.4-18.4,16.1,17.8-16.7,3.9,1.7-8.9-8.8-9Zm-70.1-24.6-1,19.6-8.4,9.7-23.3-24Zm58.1-.7,11.8,9.5v15.3l-7.8,3.9Zm13,9.7,30.6,2.3L833,367.93Zm-244.8-50.9,22.2,15.8,15.5,21.2,33.7-23.2-31.4,39.3,37-15.3-.3,12.9-12.3,8.2-2.4,5.4h-17.2l-18.3-20.6-.3-13.4Zm255.8,25.4,11.8,8.7,8.1,18.5-31.3-2.4Zm-183-12.2,4.3,24.1-35.9,15.4ZM826.68,329l-11.2,24.3-11.9-9.6Zm-155.8-2.6-21.8,26.9.3-12.5Zm39.8-12.8,34.3,31-32.7,5.4Zm.5-.3,65.2,5.7-30.8,25.4Zm66.9,6,48.5,9-23.4,15.1ZM645,316.23l26.7,9-22.3,15Zm-1.4-.1-33.9,23.7-15.1-20.6ZM838,288.23l-10.8,39.6-49.1-9.1Zm.6,0,21.2,19.8-31.9,19.5Zm-78.5-16.9,16.7,47.2-65.7-5.8ZM624,297.13l19.9,18.4-48.9,3Zm-48.8-10.7,48.2,10.4-29.3,21.6L570,301.33Zm219.1-5.3,43.2,6.7-59.7,30.4Zm-33.6-9.8,33.1,9.7-16.6,37.1Zm-94.2,7.4,42.9,33.8-63.2-8.1Zm70-16.9-26.2,50.7-43.2-34Zm.7,0,22.5,9.2-48.4,40.8ZM875.58,275l-15.5,32.6-21.2-19.8Zm-210.1,4-19.9,25.2L634,291.93Zm-96.9,5.4,64,7.6-8.6,4.4Zm33.2-17.7,63.6,11.7-31.8,13.1Zm-1.1-.1,31.9,24.8-55.5-6.6Zm249.7-30.8-12.2,51.5-43.4-6.8Zm8.2,21.5,17.1,17.1-36.5,12.7Zm-258.8,9.2-24.1,18.6-1.1-10.7-9.8-7.3Zm251.3-31.1,15,3.3-7.8,18-19.2,29.4Zm-1.8.6-55.2,44.4-33-9.7Zm-219.2-17.7,35.8,59.6L601.18,266Zm114.8-10.1-8.2,53-69.3,16.6Zm-67.7-12.6,67.5,12-77.9,70Zm-.6.2-10.4,81.7-35.7-59.6Zm68.8,13.1,14.4,61.4-22.5-9.1Zm.4-.9,52,28.2-37.4,34.1Zm103.5,27.4L761.58,270l36.8-33.6Zm-286.6,10.9,1,20.4-17.8,1.6Zm29.6.6,8,19-35.3.7Zm-29-1.1,28.3,1-27.3,19.6Zm65.8-26.9-28.3,46.7-8-19Zm254.3-10.2-1.7,17.4,9.3,10.2-4,17.1-10.7-18.7-16-9.6Zm-91.6-9.4,58.1,35.6-51.4,1Zm-.6-.3,6.7,36.6-51.7-28.1Zm44.7-14.4,23.7,40.5-8.7,9.7-58.8-36Zm.9.3,46.5,23.2-23.2,16.5Zm61.4-26.5-14.6,49.3-46.9-23.5Zm-170.6-31.6,17.4,80.3-67.5-12Zm55.8,29.9,7.7,41.7-45,8.5Zm-55.3-30.1,55,29.5-37.6,50.6Zm170.4,33,.9,15.6-4.5,20.3L884.38,207Zm-114.6-3,51.4,27.5-43.7,14.2Zm-124.4-46.8,67.7,16.4-50.1,68.3Zm112.9-15.6,56.1,43.7,7.9,46.1-52.6-28.2Zm99.7,46.8,26,16.9L837,183.53Zm-43-2.9,42.3,2.7-34.7,42ZM659,109.93l16.9,81.4-27.6-77.1ZM771.78,94l11.3,61.5L728.18,126Zm163.5-33,27.5,1-16.9,21.6L941.28,99l10,16.8-5.4,32.1-18.2-22.6,9.3-40.9Zm-77.4,27.7,13.7,51.6-42.4-2.7Zm.5-.4,52.2,7.8-26.3,14.5L872,139.73Zm-50.3-30.5,49.5,30.3-28.7,49Zm-.6-.1,20.8,79.4-55.9-43.6,1-2Zm-77.1-5.9,41.1,41.7-43.5,32Zm-53.3,2.3,49.8,71.3-61.1-26.5Zm52.7-2.7-2.4,73.8-49.9-71.5Zm-64.3,48,59,25.6-64.9-15.7Zm-28.7-24.9,22,34.8-10.7,4.4-2.8-10.8-12.1-17.4Zm39.7-20.4-11.2,44.2-13-22.9,9.7-2-1.5-8.1Zm231.6,27.6,3,13.9-51-7.6Zm-108.2-44.2-27,53.6-1.5,1.5-40.7-41.3Zm61.3,16.7,46.3,27-49.2,6.5Zm-.6-.2-2.9,33.5-49.1-30.1Zm-60.3-16.2,7,19.3-33.1,32.7Zm100.2-15,34.1,37.8-26,20.3Zm-14.1-7.7c.2.6.4,1.1.5,1.4.2.5.4,1.3.8,2.4h0l.2.7c1.9,5.8,5.8,17.6,9.9,30.2h0l.4,1.4.5,1.4.5,1.4.5,1.4.5,1.4c2.8,8.6,5.6,17.2,7.8,24h0l-46.7-27.2Zm.5-.3,12.9,7.3,7.8,56.1-2.6-8.1c-.6-1.9-1.3-4-2-6.2-1.4-4.2-2.9-8.9-4.4-13.6h0l-.6-1.8c-2.7-8.2-5.3-16.4-7.4-22.6h0l-.4-1.3c-.8-2.5-1.5-4.6-2-6.2a13,13,0,0,1-.6-1.9h0Zm76.4,19.7,5.3,13.3-5.4,13.5-27.5-1Zm-46.8-32.7L962.88,34l-27.8,26.1Zm-.6-.1,18.4,57.8-33.9-37.6Zm-71.1,22.5,15.7,29.3-52,3.4Zm-.9.1L808,56.53l1.3-24.3Zm-101.2,5.1,3,7.2L730,50.83l-52,2.3,33.9-23.7Zm143.2-14.7-25,38.4L845.28,24Zm-139.7,22.4,51.4.3-66.5,13.3ZM917,1.53l42.3,4,3.7,27.9Zm61.4,4.1,5.7,20.5-12.4-1-8.1,8.3-3.7-27.8Zm.7.3,11.9,7.7-6.5,11.9Z" transform="translate(0.02 0.05)"></path>

											<g class="cls-3"><path class="cls-4" d="M736.06,222.24h-4.2l-.8,2.5h-2.3l4-10.6h2.6l4.1,10.6h-2.4Zm-.5-1.6-1.1-3.1a8.33,8.33,0,0,1-.4-1.5h-.3a8.33,8.33,0,0,1-.4,1.5l-1,3.1Z" transform="translate(0.02 0.05)"></path><path class="cls-4" d="M742.26,223a1.37,1.37,0,0,0,1.1.4,3,3,0,0,0,1-.2.67.67,0,0,0,.4-.7.6.6,0,0,0-.3-.6,1.88,1.88,0,0,0-.9-.4l-1.6-.4a2.72,2.72,0,0,1-1.6-.8,1.74,1.74,0,0,1-.5-1.4,1.9,1.9,0,0,1,1-1.8,4.87,4.87,0,0,1,2.5-.6,5.08,5.08,0,0,1,1.7.3,2.56,2.56,0,0,1,1.3,1,3.39,3.39,0,0,1,.6,1.5h-2.2a1.53,1.53,0,0,0-.4-1,1.78,1.78,0,0,0-1-.4,2,2,0,0,0-.9.2.86.86,0,0,0-.3.6q0,.75.9.9l1.6.3a3.7,3.7,0,0,1,1.8.8,2,2,0,0,1,.6,1.5,1.9,1.9,0,0,1-1,1.8,4.73,4.73,0,0,1-2.6.7,4.55,4.55,0,0,1-2.7-.8,2.48,2.48,0,0,1-1.1-2.1H742A1,1,0,0,0,742.26,223Z" transform="translate(0.02 0.05)"></path><path class="cls-4" d="M748.26,215.34a1.23,1.23,0,0,1-.4-.8.91.91,0,0,1,.4-.8,1.27,1.27,0,0,1,.9-.4,1.22,1.22,0,0,1,.9.4,1.23,1.23,0,0,1,.4.8.91.91,0,0,1-.4.8,1.27,1.27,0,0,1-.9.4A1.09,1.09,0,0,1,748.26,215.34Zm2,1.4v8h-2.2v-8Z" transform="translate(0.02 0.05)"></path><path class="cls-4" d="M758,217.14a2.41,2.41,0,0,1,.9,2.2v3.2c0,.2,0,.3.1.4s.2.1.4.1h.4v1.7a6.15,6.15,0,0,1-1.3.1,1.1,1.1,0,0,1-1.3-1.3v-.1H757a2,2,0,0,1-1.1,1.1,3.17,3.17,0,0,1-1.6.4,3.45,3.45,0,0,1-1.8-.5,2,2,0,0,1-.9-1.8,2.32,2.32,0,0,1,.9-1.9,4.73,4.73,0,0,1,1.9-.6l.7-.1a10.63,10.63,0,0,0,1.4-.3.67.67,0,0,0,.4-.7.75.75,0,0,0-.4-.7,2,2,0,0,0-2.1.2,1.6,1.6,0,0,0-.5,1h-2.2a2.66,2.66,0,0,1,1-2.1,4.33,4.33,0,0,1,2.7-.7A3.53,3.53,0,0,1,758,217.14Zm-2.5,4.1-.6.1a5.13,5.13,0,0,0-1,.4,1,1,0,0,0,0,1.4,1.22,1.22,0,0,0,.9.3,2.39,2.39,0,0,0,1.4-.5,2.11,2.11,0,0,0,.6-1.6v-1A1.91,1.91,0,0,1,755.46,221.24Z" transform="translate(0.02 0.05)"></path>
											</g>

											<g id="Group-11-Copy-2" transform="translate(1054.000000, 400.000000)">
												<circle class="pulse-circle" cx="-199.7" cy="-95.8" r="24"></circle>
												<circle class="st2 big-circle" cx="-199.7" cy="-95.8" r="24"></circle>
												<circle class="st3" cx="-199.3" cy="-95.3" r="3.9"></circle>
											</g>
										</a>
									</g>

									<g data-name="Group">
										<a href="#europe" class="js-map-link" id="Europe">
											<path class="cls-2" d="M548.1,246.37l-1.7,5.4-1.4,17-24-15.5,4.3-6.9Zm-72.5-14.5-11.7,20.7L453,267.17l-21.6-25.7,27.8-2.7Zm86.7,14.5-16.7,22,1.3-16.3,1.8-5.7Zm-63.8-12.3,21.6,19.3L507.2,261l-13.3-19.4Zm9.1-6.6,17.1,18.7-4.2,6.8-21.6-19.3Zm-31.2,4,21.5,2.4-4.6,7.5-28.6,10.8Zm104-3,11.4,18.4-28.9-1H548.8L552,236l11-7.5Zm48.5-9.6-36.5,27.8L581,228.37Zm-77.6,17.3-3.1,9.6H526.6Zm-16.4-29.1,16.5,28.5-25.9,10.1Zm-1,1.6-9,36.8-16.8-18.4ZM476,200v31l-16.4,7v-12.3l-11.9-10.6-7.3-7.2,18.8-.7,5.5,2.4Zm117.5-32.3-41.7,67.5-16.7-29-4.8-28.4ZM476.5,200l30.7,27-8.9,6.3-21.8-2.4Zm117.6-32.2,35.5,50.4-49.1,9.7H562.9l-10.1,6.9ZM504,192.17l30.5,14.2-.3,1.4L508,226.47Zm-15.5-4.3,14.9,4.1,3.9,34.4-30.6-27Zm106.3-20,81.5,28-46.1,22.2Zm-143.5,28.5,7.4,10.3-19,.7-10.5-1.3Zm7.9-11.1,7.6,13.3-7.5,7.9L451.7,196Zm-16.3-.5,8,11.1-22.7,10-4.6-7.2,10.5-9.5Zm86.8-6.8,4.7,27.8-30.1-14.1Zm-82.1-9.5,11.3,16.3-7.5,10.8-8.1-11.2Zm160.5-37.1,67.7,63.8-81.4-28.1ZM647.7,115l28.6,79.9-67.8-63.8Zm-150.2,22.8,14.6,10.8,5.5,14-13.9,19.6-7-12.1-14.4-.1Zm47.8,15.5,47.4,14-62.3,9.9,4.2-7.8ZM496.7,138l-15.1,31.9h-9.2l2-18.9Zm47.8,15.5-10,15.1-5.2-9.3Zm-6.6-47.7,20.3,2.3,12.4,17.8,22.9,40.9-48-14.1Zm33.5,20.3,36.2,5.1L594,166.67Zm-44.8,17.2,17.9,9.6-15.5,5.9-7-7.3Zm10.8-36.9,7.3,45.6-19.3-21.1Zm-11.9,25.4,18.4,20.1-17.1-9.2Zm-18.8-17.2,5.1,33.1-14.3-10.6-8.1-9.8Zm.7.3L524.8,131l-12.3,16.7ZM644,103.67l-36,26.8-33.5-20.4Zm-107,2.2-12,24.5-17.5-16.2Zm36.8,4.5,32.9,20-35.5-5Zm71-6.5,2.7,10.6L610,129.87Z" transform="translate(0.02 0.05)"></path>

											<g class="cls-3"><path class="cls-4" d="M529.26,213.44v1.8h-7.8v-10.6h7.7v1.8h-5.5V209h5v1.7h-5v2.8h5.6Z" transform="translate(0.02 0.05)"></path><path class="cls-4" d="M535.46,215.24V215a.75.75,0,0,1,.1-.5,1.69,1.69,0,0,1,.2-.5l-.3-.1a3.13,3.13,0,0,1-.9,1.1,3.06,3.06,0,0,1-1.7.4,2.49,2.49,0,0,1-1.9-.7,2.54,2.54,0,0,1-.7-2.1v-5.4h2.2v5.1a1.05,1.05,0,0,0,.4,1,1.78,1.78,0,0,0,1,.4h0a1.5,1.5,0,0,0,1.1-.4,1.61,1.61,0,0,0,.5-1.1v-4.9h2.2v8h-2.2Z" transform="translate(0.02 0.05)"></path><path class="cls-4" d="M543.16,209.34a2.23,2.23,0,0,0-1.3.4,2,2,0,0,0-.4,1.4v4h-2.2v-8h2.1v.9a1.42,1.42,0,0,1-.2.6l.3.1a2.54,2.54,0,0,1,.9-1.3,3.51,3.51,0,0,1,1.6-.3h.4v2.3C544,209.44,543.56,209.34,543.16,209.34Z" transform="translate(0.02 0.05)"></path><path class="cls-4" d="M550.86,207.54a3.67,3.67,0,0,1,2,3.6,4.77,4.77,0,0,1-.5,2.2,3.61,3.61,0,0,1-1.5,1.5,4.66,4.66,0,0,1-4.2,0,3.61,3.61,0,0,1-1.5-1.5,4.19,4.19,0,0,1-.5-2.2,4.77,4.77,0,0,1,.5-2.2,2.94,2.94,0,0,1,1.5-1.4,4.66,4.66,0,0,1,4.2,0Zm-.7,5.5a3.56,3.56,0,0,0,.5-1.9,3.2,3.2,0,0,0-.5-1.8,1.51,1.51,0,0,0-1.4-.7h-.1a1.36,1.36,0,0,0-1.3.7,3.45,3.45,0,0,0-.5,1.8,3.81,3.81,0,0,0,.4,1.9,1.36,1.36,0,0,0,1.3.7h.1A1.34,1.34,0,0,0,550.16,213Z" transform="translate(0.02 0.05)"></path><path class="cls-4" d="M560.76,207.54A3.09,3.09,0,0,1,562,209a6.25,6.25,0,0,1,0,4.4,4.43,4.43,0,0,1-1.2,1.5,3.45,3.45,0,0,1-1.8.5,2.54,2.54,0,0,1-1.6-.4,2.44,2.44,0,0,1-.9-1.1l-.2.1a5,5,0,0,1,.2,1.2v3.1h-2.2v-11.1h2.2v.1a5.16,5.16,0,0,1-.2,1.1l.2.1a3.13,3.13,0,0,1,.9-1.1,2.73,2.73,0,0,1,1.6-.4A3.45,3.45,0,0,1,560.76,207.54Zm-2.6,1.1a1.51,1.51,0,0,0-1.4.7,3.86,3.86,0,0,0,0,3.8,1.51,1.51,0,0,0,1.4.7h.1a1.51,1.51,0,0,0,1.4-.7,3.86,3.86,0,0,0,0-3.8,1.81,1.81,0,0,0-1.5-.7Z" transform="translate(0.02 0.05)"></path><path class="cls-4" d="M569.56,207.54A2.94,2.94,0,0,1,571,209a5.45,5.45,0,0,1,.5,2.2v.4h-5.9a2,2,0,0,0,.6,1.5,1.82,1.82,0,0,0,1.4.6h.1a1.59,1.59,0,0,0,1.2-.4,2.36,2.36,0,0,0,.6-.9h2.2a2.63,2.63,0,0,1-.7,1.5,4,4,0,0,1-1.5,1,5.85,5.85,0,0,1-1.9.4,4.77,4.77,0,0,1-2.2-.5,2.94,2.94,0,0,1-1.4-1.5,5.45,5.45,0,0,1-.5-2.2,4.77,4.77,0,0,1,.5-2.2,4,4,0,0,1,1.4-1.5,4.65,4.65,0,0,1,2.1-.5A6.46,6.46,0,0,1,569.56,207.54Zm-.2,2.8a2.54,2.54,0,0,0-.5-1.3,1.73,1.73,0,0,0-1.3-.5h-.1a2.11,2.11,0,0,0-1.3.5,2,2,0,0,0-.6,1.3Z" transform="translate(0.02 0.05)"></path>
											</g>

											<g id="Group-11-Copy-3" transform="translate(722.000000, 350.000000)">
												<circle class="pulse-circle" cx="-199.7" cy="-95.8" r="24"></circle>
												<circle class="st2 big-circle" cx="-199.7" cy="-95.8" r="24"></circle>
												<circle class="st3" cx="-199.3" cy="-95.3" r="3.9"></circle>
											</g>
										</a>
									</g>

									<g id="Australia"><path class="cls-1" d="M920.76,580.36l24.2,31.8h-25.8Zm1.2-1.1,52.9.9-28.2,31.6Zm39.6-36.5,14.2,35.8-53.4-.9Zm42.2-21.7-5.4,27.8-21.3,28.6L963,541.76Zm-86-4.6,43.1,24.8-39.8,35.4Zm-1.6.1,3.3,60.1-22.6-18.1-23.7-7.6Zm-75.9-9.2,30.1,43.9-18.3,16.2H831l-.8-38.6Zm36.3-33.5,39.3,40.9-43.5,34.8,4.2-67.7Zm-1.7,9.3-4.1,65.7-29.5-43.1,14.6-12.5Zm74.7,1.1,11.6,55.3-42.9-24.7Zm38.3,16.7,15.7,18.4-39.1,19.8Zm-36.7-16.9,35.4,15.9-23.9,39Zm-45.1-15.3,42.5,14.3-31.1,30.3Zm-1.8-.4,11.2,43.7-38.1-39.7ZM985,462l1.9,36.4-33.8-15.2,12.2-1.4a.76.76,0,0,0,.5-.2h0Zm-34.4-16.9-1.2,36.5-42.8-14.4,18.3-15.9c1.1-.3,6.1-1.5,11.5-2.8l.7-.2,1.4-.3c5-1.2,9.9-2.4,12.1-2.9Zm-53.7,6.9,6.9,14.9-25.6,3.8Z" transform="translate(0.02 0.05)"></path><g class="cls-3"><path class="cls-4" d="M899.76,529.84h-4.2l-.9,2.5h-2.3l4-10.6H899l4.1,10.6h-2.3Zm-.5-1.6-1.1-3.1a8.33,8.33,0,0,1-.4-1.5h-.3a8.33,8.33,0,0,1-.4,1.5l-1,3.1Z" transform="translate(0.02 0.05)"></path><path class="cls-4" d="M908.66,532.34v-.2a.75.75,0,0,1,.1-.5,1.69,1.69,0,0,1,.2-.5l-.3-.1a3.13,3.13,0,0,1-.9,1.1,3.06,3.06,0,0,1-1.7.4,2.49,2.49,0,0,1-1.9-.7,2.54,2.54,0,0,1-.7-2.1v-5.4h2.2v5.1a1.05,1.05,0,0,0,.4,1,1.53,1.53,0,0,0,1,.4h0a1.5,1.5,0,0,0,1.1-.4,1.61,1.61,0,0,0,.5-1.1v-4.9h2.2v8h-2.2Z" transform="translate(0.02 0.05)"></path><path class="cls-4" d="M914.56,530.64a1.37,1.37,0,0,0,1.1.4,3,3,0,0,0,1-.2,1,1,0,0,0,.4-.7.6.6,0,0,0-.3-.6,1.88,1.88,0,0,0-.9-.4l-1.6-.4a2.72,2.72,0,0,1-1.6-.8,1.74,1.74,0,0,1-.5-1.4,1.9,1.9,0,0,1,1-1.8,4.87,4.87,0,0,1,2.5-.6,5.08,5.08,0,0,1,1.7.3,2.56,2.56,0,0,1,1.3,1,3.39,3.39,0,0,1,.6,1.5h-2.2a1.53,1.53,0,0,0-.4-1,1.78,1.78,0,0,0-1-.4,2,2,0,0,0-.9.2.86.86,0,0,0-.3.6q0,.75.9.9l1.6.3a3.7,3.7,0,0,1,1.8.8,2,2,0,0,1,.6,1.5,1.9,1.9,0,0,1-1,1.8,5,5,0,0,1-2.6.7,4.55,4.55,0,0,1-2.7-.8,2.48,2.48,0,0,1-1.1-2.1h2.3A1.56,1.56,0,0,0,914.56,530.64Z" transform="translate(0.02 0.05)"></path><path class="cls-4" d="M924.66,532.24a1,1,0,0,0-.4.1,2.22,2.22,0,0,1-.9.1,2.27,2.27,0,0,1-1.9-.8,3.4,3.4,0,0,1-.6-2.2v-3.6h-1.2v-1.6h1.2v-2.3h2.2v2.3h1.5v1.6h-1.5v3.6a1.55,1.55,0,0,0,.2.8.78.78,0,0,0,.7.3h.7v1.7Z" transform="translate(0.02 0.05)"></path><path class="cls-4" d="M929.86,526.44a2.23,2.23,0,0,0-1.3.4,2,2,0,0,0-.4,1.4v4H926v-8h2.1v.9a1.42,1.42,0,0,1-.2.6l.3.1a2.54,2.54,0,0,1,.9-1.3,3.51,3.51,0,0,1,1.6-.3h.4v2.3A4.12,4.12,0,0,0,929.86,526.44Z" transform="translate(0.02 0.05)"></path><path class="cls-4" d="M938.06,524.74a2.41,2.41,0,0,1,.9,2.2v3.2c0,.2,0,.3.1.4s.2.1.4.1h.4v1.7a6.15,6.15,0,0,1-1.3.1,1.1,1.1,0,0,1-1.3-1.3V531h-.2a2,2,0,0,1-1.1,1.1,3.17,3.17,0,0,1-1.6.4,3.45,3.45,0,0,1-1.8-.5,2,2,0,0,1-.9-1.8,2.32,2.32,0,0,1,.9-1.9,4.73,4.73,0,0,1,1.9-.6l.7-.1a10.63,10.63,0,0,0,1.4-.3.67.67,0,0,0,.4-.7.75.75,0,0,0-.4-.7,2,2,0,0,0-2.1.2,1.6,1.6,0,0,0-.5,1h-2.2a2.66,2.66,0,0,1,1-2.1,4.33,4.33,0,0,1,2.7-.7A3.53,3.53,0,0,1,938.06,524.74Zm-2.6,4-.6.1a5.13,5.13,0,0,0-1,.4,1,1,0,0,0,0,1.4,1.22,1.22,0,0,0,.9.3,2.39,2.39,0,0,0,1.4-.5,2.11,2.11,0,0,0,.6-1.6v-1C936.66,528.34,936.16,528.64,935.46,528.74Z" transform="translate(0.02 0.05)"></path><path class="cls-4" d="M943.06,521.14v11.1h-2.2v-11.1Z" transform="translate(0.02 0.05)"></path><path class="cls-4" d="M945,522.94a1.23,1.23,0,0,1-.4-.8.91.91,0,0,1,.4-.8,1.27,1.27,0,0,1,.9-.4,1.22,1.22,0,0,1,.9.4,1.23,1.23,0,0,1,.4.8.91.91,0,0,1-.4.8,1.27,1.27,0,0,1-.9.4A1.8,1.8,0,0,1,945,522.94Zm2,1.4v8h-2.2v-8Z" transform="translate(0.02 0.05)"></path><path class="cls-4" d="M954.66,524.74a2.41,2.41,0,0,1,.9,2.2v3.2c0,.2,0,.3.1.4s.2.1.4.1h.4v1.7a6.15,6.15,0,0,1-1.3.1,1.1,1.1,0,0,1-1.3-1.3V531h-.2a2,2,0,0,1-1.1,1.1,3.17,3.17,0,0,1-1.6.4,3.45,3.45,0,0,1-1.8-.5,2,2,0,0,1-.9-1.8,2.32,2.32,0,0,1,.9-1.9,4.73,4.73,0,0,1,1.9-.6l.7-.1a10.63,10.63,0,0,0,1.4-.3.67.67,0,0,0,.4-.7.75.75,0,0,0-.4-.7,2,2,0,0,0-2.1.2,1.6,1.6,0,0,0-.5,1h-2.2a2.66,2.66,0,0,1,1-2.1,4.33,4.33,0,0,1,2.7-.7A3.44,3.44,0,0,1,954.66,524.74Zm-2.5,4-.6.1a5.13,5.13,0,0,0-1,.4,1,1,0,0,0,0,1.4,1.22,1.22,0,0,0,.9.3,2.39,2.39,0,0,0,1.4-.5,2.11,2.11,0,0,0,.6-1.6v-1A1.46,1.46,0,0,1,952.16,528.74Z" transform="translate(0.02 0.05)"></path></g>
									</g>
								</svg>