<svg id="america" xmlns="http://www.w3.org/2000/svg" width="3000" height="2500" viewBox="0 0 3000 2500">
  <defs>
    <style>
      .cls-1 {
        fill: #6b6b6b;
      }

      .cls-1, .cls-2, .cls-3, .cls-4, .cls-5 {
        fill-rule: evenodd;
      }

      .cls-2 {
        fill: #383838;
      }

      .cls-3 {
        fill: #575757;
      }

      .cls-4 {
        fill: #979491;
      }

      .cls-5 {
        fill: #bfbfbf;
      }
    </style>
  </defs>
  <path class="cls-1" d="M385,659l14-3,23-15,8-8,15-3,4,9,14-1,12-7,9-4,7,8s11.993,1.97,16,1,7.656-.17,12,2,11,8,11,8l9,17-6,16-3,9s0.019,8.2,0,14,0,10,0,10l-8,3s-2.475,6.188,4,7,7.886,4.555,12,7,7.464-.689,8,5-9,10-9,10a21,21,0,0,0-10-2,33.422,33.422,0,0,0-7,1l-5,11-2,13-10,21-7,5-11,13s-3.357-8.395-3,9,1,23,1,23l1,16,7,8a58.288,58.288,0,0,0,8,7c4.674,3.37,4.377,1.53,6,7a55.4,55.4,0,0,1,2,10l-2,11c2.57,5.6,4.965,17.113,6,22s-0.24,6.267,2,14-0.662,1.068,3,10-2.579,11.512,4,11c9.669-.753,6,4,6,4,0.378,0.171,17.113-22.167,13.871-23.633L524,919l-1-10-4-9v-9s6.72-3.48,8,1,7,19,7,19,2.319,8.03,2,12,0.929,15.19,8,20,10,8,10,8l7,8,4,12v19l-2,8v8l18,15,19,5,12,6,9,11,9,2,13-8,10-3s3.4,1.58,8,10,19,16,19,16l13,7,8-5,10,3,2,19,13,16s8.918,6.89,14,8,14,4,14,4l7-10-24-12-7-12,5-22,2-14-14-7-16,2-10,1,6-15,1-8,10-20,3-10-11,1-10,1-9,5-3,8-11,7-9,5-11-1s-2.928.86-9-2-12.558-3.79-13-9-3.29-10.953-3-11,2-15,2-15l4-17,4-16,7-16c4.8-1.535,15.766-2.779,23-9s6.624-6.224,16-7,20,6,20,6l10-6s4.194-7.469,8-7,10,2,10,2l13,5,9-1,8-2,2,12s-4.836,10.75-4,15,5,11,5,11l8,6a43.3,43.3,0,0,1,10-7l-1-19V911l-2-12,7-9s2.646-2,12-9,3.761-4.215,12-10,10-8,10-8,7.206-2.605,11-7a26.711,26.711,0,0,0,5-8s-0.464,1.316,2-8-1.267-4.006,4-6,2.61,0.394,7-5,7.486-5.04,9-10-3.678-1.73,3-7a55.511,55.511,0,0,1,15-8h9l14-8,4-7,8-11a93.472,93.472,0,0,0,9-4c4.332-2.252,12-8,12-8l12-2-6,10c-0.058,4.693-1.123,6.18,3,6s12-5,12-5l17-9,7-7c-4.5.954-16-2-16-2s-6.41-6.4-4-11,8-11,8-11-2.082-8.778-12-5a58.833,58.833,0,0,0-16,9l-8-5,8-7s4.8-2.379,14-9,5.271-1.713,12-3,7.819-2.5,13-1,7.026,3.543,12,4,12-4,12-4,5.89-3.613,11-3,4.46,2.365,10-1,11-7,11-7l12-8,2-10s-3.07-6.426-9-9-4.36-2.115-9-6-8-7-8-7l-4-19c-0.3-4.024,0-15,0-15l-17,9s-1.211.55-6,5-4.707,4.461-9,5-7-7-7-7c1.559-4.94,5-18,5-18-6.605-3.919-17-10-17-10a85.1,85.1,0,0,0-16-1c-8.753.3-18,8-18,8-1.139,6.141-1.074,5.227-3,10a33.055,33.055,0,0,1-6,9l-5,6-5,13-5,10-10,5-12,6c-3.413,1.583-5,14-5,14l-8,9c-4.9,4.944-6.906,7.442-11,6s-9.225.953-7-6,8-21,8-21l2-9-14-1-14-4c-6.768-1.224-18-11-18-11l-8-10,5-11s10.319-10.352,15-14,10.692-9.663,15-10,0.116,1.237,11-2,13.808-2.641,20-5,11.068-5.708,16-8,12-6,12-6l11-7a55.064,55.064,0,0,0,11,0c5.062-.647,19-6,19-6l7-7,6-7-7-10-10,3s-8.239,3.957-13,8-14,9-14,9l-9-9v-9l4-9-4-9s-7.5-4.056-13,0-3.511,2.322-7,7-9,17-9,17c-4.667,1.048-14,6-14,6H847s-5.352,4.913-11,5-4.827-4.721-10-5a27.8,27.8,0,0,1-9-2l-8-3s-0.912.645-9,0a21.774,21.774,0,0,0-14,4c-7.341,2.364-16,8-16,8s0.64-6.065-8-5-12-1-12-1l-8-1-2-11s-4.826-4.777-9-5-20,3-20,3H698l-14-4-17,4s-11.319-2.511-16-1-11,3-11,3l-7,4s-8.332,5.112-11,3-11-10-11-10l-22-3-29-1-20-2-18-1-20,5-25,6-7,6-15,3-12,8,1,11c-4.8.494-19,1-19,1l-9,5,14,5-9,9-17,1-17,6-8,3-13,12-2,11,11,2,6,8S378.609,662.222,385,659Z"/>
  <path class="cls-1" d="M754,1113l6-10-13-7-10-4-7-11,6-38-13-7-26,4-21-10,34,37,3,16,11,17,12,7Z"/>
  <path class="cls-2" d="M706,1015l-8,21-24-9Z"/>
  <path class="cls-3" d="M717,985l-4,13-6,10-35,16,11-23,4-8,8-7h8Z"/>
  <path class="cls-2" d="M616,1043l38-33v24s-8.4,8.52-11.363,5.93S631,1046,631,1046Z"/>
  <path class="cls-2" d="M613,1036l34-25-16-7Z"/>
  <path class="cls-3" d="M564,1008l20,14,23,8,23-28Z"/>
  <path class="cls-4" d="M563,999l2-9-1-17-7-18,69.09,40,6.91,4-69,6Z"/>
  <path class="cls-2" d="M629,986l2-14,3-19,6-20-99,8,88,54v-9Z"/>
  <path class="cls-2" d="M774,950l-10-8-6-12,2-7,4-8-4-8L734,773l81,96-34,29v12l2,10-1,10,3,9-1,7Z"/>
  <path class="cls-2" d="M387,660l15-4,27-22,14-3,5,8,14,1,23-12,40-68L421,607l-16-1-15,6-13,4-8,8-5,9,2,9,14,1,2,10-2,8Z"/>
  <path class="cls-2" d="M481,803l9-2,7-9,7-6,136-13L506,877l-23-21-1-16Z"/>
  <path class="cls-2" d="M1015,630l-10,6-9,5-45,63,93-10,3-10-12-10-11-3-5-11V650l-1-14Z"/>
  <path class="cls-2" d="M958,716l-6-8,18.131-2.292L1039,697l-13,12-7,3-12-1-7,6-8,3-11-3Z"/>
  <path class="cls-3" d="M929,735l25-19-69-17Z"/>
  <path class="cls-4" d="M881,691l66,19-34-54-5,13-14,6-10,5Z"/>
  <path class="cls-3" d="M918,649l29,55,36-56-8-7,6-14-14-12-19-3-15,4-5,9Z"/>
  <path class="cls-2" d="M932,737l5,5,11-8,12-5,5,5-7,10v7l7,6,10,4-11,9-13,6-10,5,1-10,4-8-12,5-9,4-10,5-72-49Z"/>
  <path class="cls-3" d="M816,866l11-4,10-11,3-15-91-54Z"/>
  <path class="cls-4" d="M848,832l-6,2-85-51,119,20-17,11-1,8Z"/>
  <path class="cls-4" d="M884,804l7-3,11-6,6-15-69-50Z"/>
  <path class="cls-2" d="M758,782l80-46,37,63Z"/>
  <path class="cls-2" d="M757,775l75-39,29-62Z"/>
  <path class="cls-5" d="M852,708l-9,17,81,8-44-38-11,9-6,6Z"/>
  <path class="cls-5" d="M757,908L729,779,672,912l18-2,9,6,8-3,11-10,9-2,10,10,13-2Z"/>
  <path class="cls-3" d="M640,934l4-9,11-2,10-6,57-134Z"/>
  <path class="cls-3" d="M539,941l101-10,1-148Z"/>
  <path class="cls-2" d="M647,775l-3,148,74-140Z"/>
  <path class="cls-2" d="M538,940l-10.608,15.912C526.54,957.189,526,958,526,958l-7-3-4-2,3-7-5-9-3-8V918l-5-16v-9l2-8s-3.047-3.3-2-5,56-42,56-42l-33,53-7,1-3,8,2,9,8,12,9,13Z"/>
  <path class="cls-4" d="M541,937l-2-5-2-3s-1.843-8.925-2-11-0.362-10.9-1-12-6-11-6-11l35-54-20.388,88.966Z"/>
  <path class="cls-2" d="M640,776L546,928l22-96Z"/>
  <path class="cls-5" d="M513,923c1.044,0.639-3.841-14.862-2-10"/>
  <path class="cls-5" d="M746,778L859,673l-18-4-21-10-10-15Z"/>
  <path class="cls-5" d="M506,781l113-14-83-24-13-2-9,5v9l-2,8Z"/>
  <path class="cls-3" d="M542,739l93,29,16-28Z"/>
  <path class="cls-3" d="M725,779l80-134L647,771Z"/>
  <path class="cls-5" d="M642,764L753,621l55,19Z"/>
  <path class="cls-2" d="M817,637s17.434-20.718,21-23-81,3-81,3Z"/>
  <path class="cls-3" d="M845,611l17-3,22-6,23-12,12-8h16l14-6,9-15-6-7-19,6-14,12-11-6-3-11,7-9-11-11-16,8-6,11-3,6-9,4-15,4-6-3-88,48Z"/>
  <path class="cls-5" d="M766,576c4.426-3.95,24-14,24-14s13.255,1.794,16,1,14,4,14,4l10,3-81,45S761.574,579.95,766,576Z"/>
  <path class="cls-3" d="M764,570l-8-3-11,2-6-6-2-9-7-3-15,1-16,4L676,713l12.481-20.281Z"/>
  <path class="cls-2" d="M691,553l-9-4-13,6-10-2-17,3-13,5-8,3,49,150Z"/>
  <path class="cls-2" d="M548,736l110,1,11-19Z"/>
  <path class="cls-3" d="M609,553l10,12,45,149L549,733Z"/>
  <path class="cls-5" d="M542,732l-10-7-7-3-5-7,7-3,4.988-9.976L605,556Z"/>
  <path class="cls-3" d="M532,548l25,99,48-95H591l-29-3H543Z"/>
  <path class="cls-5" d="M486,630l46-75,22,96-25-4-16-12-10,2-11,1Z"/>
  <path class="cls-2" d="M528,704l24-49-21-4,6,11-6,14-2,11Z"/>
  <path class="cls-3" d="M419,607l9-9-13-6,9-4,15-2,7-2-3-9,13-8,12-1,9-9,47-11,6,7Z"/>
  <path class="cls-3" d="M701,1062l-43-46-4,20,17,21,20,10Z"/>
</svg>
