<svg id="asia" xmlns="http://www.w3.org/2000/svg" width="3000" height="2500" viewBox="0 0 3000 2500">
  <defs>
    <style>
      .cls-1 {
        fill: #6b6b6b;
      }

      .cls-1, .cls-2, .cls-3, .cls-4, .cls-5, .cls-6, .cls-7 {
        fill-rule: evenodd;
      }

      .cls-2 {
        fill: #383838;
      }

      .cls-3 {
        fill: #454545;
      }

      .cls-4 {
        fill: #888;
      }

      .cls-5 {
        fill: #999;
      }

      .cls-6 {
        fill: #585858;
      }

      .cls-7 {
        fill: #979491;
      }
    </style>
  </defs>
  <path id="asia-2" data-name="asia" class="cls-1" d="M1568,841l3-14,17-9,28-11,21,4,23,8,17-8-9-13-22-13-3-12,7-16-7-10-17-8-18-8-14-17-9-7-8-14-14-14-6-22,11-7-3-14,4-13-9-12-6-29-12-25,24,5c2.49-1.982,68.48,19.635,63,24l-26,10,3,14,19,4,6-12,9-8h17l11,6,9-12,30-9,26,3,17-2,14-9,17,3,17,6-16-18,6-14s6.75-11.672,14-8,8,23,8,23l17,22,12,9,3-20-9-9,9-17c8.85,9,14,8,14,8l12-8-10-12,21-4,8-15,35,8,28-8c4.82-6.586,26-3,26-3l14,9,19-1,18,1-21,11,29,6h23l19,3,12,5,17-8,29,6,17,10,12,6,31-10c-0.42-.538,33.27-3.852,34-3s42,7,42,7,37.02,10.172,38,10,22-3,22-3l42,10,24.87,2.131L2408,576s-6.63-14.213,2-14,33,7,33,7,25.76,5.645,33,8,49,17,49,17l12-6,19,6-3,14-57-8-14-4,6,17,19,1,17,8-13,17-20,3h-23l-12,18,18,7,13,18-2,23v17l-34-23-15-19-6-10,7-14-4-22-10-11-23-4-4,17,1,14-21,1-11-14-14-3-17,16-20,14-6,24,32,16,6-11,14,11,20,23v26l-12,38-15,7-16,15-1,17,20,15,3,24-10,7-15-20-11-18-24-25h-33l-9,14,5,17,23,4,10-7,13,6-16,15-1,14s4.39,3.941,15,8,16,15,16,15l1,19-1,21s-2.37,12.613-10,22-6.38,9.167-15,14-25,15-25,15l-14,8-10,9-13-6-12,3-12,23s2.81,4.66,14,10,6.14-7.39,13,9,8,29,8,29l-4,17-13,19-15,3a52.366,52.366,0,0,1-16-20c-5.68-12.83-12-25-12-25l-14,1c0.84,8.02-3,27-3,27s-13.06-21.31-14-30-4.26-13.52-6-23-3-23-3-23l-11,14-9,18s-19.44-54.67-20-55-5-19-5-19-13.83,1-20,5-8,6-8,6l-12,13s-15.19,12.34-21,21-10.09,11.73-19,19-9,9-9,9-4.27,1.23-6,11c-0.79,4.44-13.39,17.05-5.02,24.71S1996,1114,1996,1114c-3.51,6.23-7,6-7,6l-31-56-2-65-18-10-8,9-14-16s-10.34-11.616-14-23-34-1-34-1l-32,4s-19.29,4.115-22-7-7-23-7-23l-23,18a127.366,127.366,0,0,1-13-11c-5.86-5.824-17-26-17-26h-17s-1.6,13.168,2,25,5.27,29.761,12,31,5.04,7.566,16,10a90.721,90.721,0,0,0,21,2l14-17,16,15,13,14c0.77,11.59-6,22-6,22l-12,15s-7.89,7.39-14,10-6.84,3.92-17,9a90.232,90.232,0,0,0-17,11s-6.24,4.58-15,10-22,7-22,7l-14,9s-2.93-24.19-4-34-6.69-34.54-10-42-21-3-21-3-3.68-9.833-6-17-8-21-8-21-15.02-6.365-17-13-6-29-6-29-4.26,3.313-11,8-9,6-9,6l-13-23,27-11,10-15,4-16,1-21-25,1-23,8-18-3C1579.26,861.238,1568,841,1568,841Z"/>
  <path class="cls-2" d="M1715,1086l6.03-8.31C1740.73,1050.5,1802,966,1802,966l30,28-13,31-13,12-37,19-15,13-15,7Z"/>
  <path class="cls-3" d="M2237,588l-14,199Z"/>
  <path class="cls-3" d="M2105,984s-0.93-3.044-2.5-8.166C2094.19,948.661,2068,863,2068,863l157,139-13,27,18,16,14,23-1,22-12,21-11,5-10-3c-5.06-1.07-22.82-39.66-15-38,6.17,1.31-13-3-13-3l-13,2-1,20s-20.05-38.82-11.89-49.24S2154,1036,2154,1036l-8-13c-0.19.4-25.55,46.06-19.35,32.87,0.08-.17-16.64-51.04-21.42-56.6Z"/>
  <path class="cls-4" d="M1990,1120l11-14,3-12-7-9,5-11,4-8-1-7,8-7,19-17,18-20-31-121-63,104,1,68Z"/>
  <path class="cls-4" d="M1810,930l63-63-52,95-6-3-7-26Z"/>
  <path class="cls-4" d="M2260,848c0.51,2.732-47,77-47,77l77-44,3-17,15-14-14-6-12,8S2259.49,845.268,2260,848Z"/>
  <path class="cls-4" d="M2248,1009c0.1-3.11,1-78,1-78l69,21-15,22S2247.9,1012.1,2248,1009Z"/>
  <path class="cls-5" d="M2051,1014l15-149,35,111,1,7-18-2c3.41,1.273,4,2,4,2l-16,10-10,9Z"/>
  <path class="cls-5" d="M2453,702c-0.5-2.663-5-44-5-44l24,9,14,17-2,40S2453.5,704.663,2453,702Z"/>
  <path class="cls-5" d="M2407,567c1.46,2.216,43,61,43,61l32-31S2405.54,564.784,2407,567Z"/>
  <path class="cls-6" d="M2021,894l47-30-17,151Z"/>
  <path class="cls-6" d="M1825,960c4.51-2.677,81-61,81-61l-11-47-25,21S1820.49,962.677,1825,960Z"/>
  <path class="cls-2" d="M2269,812c3.67-4.65,78-114,78-114l35,34-1,23-10,34-25,17-9,11-1,18,19,12,3,24-7,7-54-61S2265.33,816.65,2269,812Z"/>
  <path class="cls-6" d="M2248,1005l-13-4-9,3-43-43,63-48Z"/>
  <path class="cls-6" d="M2252,908l69,41,3-47-16-13-16-7Z"/>
  <path class="cls-6" d="M2261,847l-5-19,13-15,69-103-127,62-15,9Z"/>
  <path class="cls-5" d="M2214,621l125,87-138,71Z"/>
  <path class="cls-4" d="M2170,565l44,52s1.55-.81,4.26-2.221C2236.62,605.211,2308,568,2308,568l-30-9-37-7-21-4-30,5Z"/>
  <path class="cls-5" d="M2312,688l2-116-96,48Z"/>
  <path class="cls-2" d="M2353,634l-35-65-2,96,19-12Z"/>
  <path class="cls-6" d="M2377,654l-22-19-33-68,79,53-6,20,6,14h-24Z"/>
  <path class="cls-4" d="M2428,626l-24-6-76-52,82,10,33,42Z"/>
  <path class="cls-3" d="M2440,651l17,7,9-17-21-18-12,3v11Z"/>
  <path class="cls-3" d="M1660,822l96,89,55-198Z"/>
  <path class="cls-6" d="M2100,744l15-37,18,63Z"/>
  <path class="cls-6" d="M2019,766l104,12-7,14Z"/>
  <path class="cls-1" d="M1868,710l86,9,48,42Z"/>
  <path class="cls-3" d="M1862,709c1.77,4.887,43,188,43,188s92.16-127.415,100-131S1860.23,704.112,1862,709Z"/>
  <path class="cls-3" d="M2116,697l93-80-15,172Z"/>
  <path class="cls-3" d="M1990,672l17-136,17-14-32,3-14-12-25-1-18,10-14,2-33-7-9,19h-19l8,10-9,8h-10l-7-6-9,17,13,9Z"/>
  <path class="cls-6" d="M1750,581l3,135,87-120-17-16-14-18-3-19-9-3-9,9-8,12,17.32,20.489C1787,570,1764,571,1764,571Z"/>
  <path class="cls-4" d="M2009,536l-17,136,99-123-15-6-20-3-21,2Z"/>
  <path class="cls-4" d="M2118,692l45-128,47,53Z"/>
  <path class="cls-5" d="M2002,762c0.18,2.57-96,135-96,135l109-72S2001.82,759.43,2002,762Z"/>
  <path class="cls-2" d="M2184,954c-2.86,9.438-68-251-68-251l143,145S2186.71,945.059,2184,954Z"/>
  <path class="cls-2" d="M2005,763l95,26-80,36Z"/>
  <path class="cls-5" d="M1763,744l-7-26,82-119Z"/>
  <path class="cls-5" d="M1844,576l22,134,135,51Z"/>
  <path class="cls-6" d="M1766,743l75-144,13,73Z"/>
  <path class="cls-4" d="M1785,947l69-269,41,171Z"/>
  <path class="cls-2" d="M1757,910l96-232-69,272-16-14-7-11Z"/>
  <path class="cls-6" d="M1811,709l43-35-99,241Z"/>
  <path class="cls-6" d="M2017,826l4,66-66,106Z"/>
  <path class="cls-2" d="M1955,998c1.33-3.721,60-169,60-169l-107,70S1953.67,1001.72,1955,998Z"/>
  <path class="cls-2" d="M2160,563L1992,674l97-123,16-9,35,4Z"/>
  <path class="cls-2" d="M1845,576l156,185,127,11Z"/>
  <path class="cls-5" d="M1997,674c3.98-2.349,164-106,164-106l-61,171S1993.02,676.349,1997,674Z"/>
  <path class="cls-5" d="M2023,894l-3-65,81-36Z"/>
  <path class="cls-6" d="M2072,862l-43,30,74-96Z"/>
  <path class="cls-6" d="M2184,960l-109-94,54-94Z"/>
  <path class="cls-1" d="M1656,698L1545,561c3.77-1.786,84.32,18.426,81,20l-19,17v11l12,6,8-1,9-15Z"/>
  <path class="cls-2" d="M1586,705l70-6L1551,571l5,16,4,21,9,16-2,9-1,10,4,8-13,6,6,23,17,16Z"/>
  <path class="cls-4" d="M1567,842l12,19,20,3,25-9h27l101,58-94-94-28-10-18-3-40,19Z"/>
  <path class="cls-6" d="M1639,600l18,97,54-119-29,10-4,8-12,5-9-8Z"/>
  <path class="cls-4" d="M1709,582l43,136-2-138-14,3Z"/>
  <path class="cls-5" d="M1659,699l90,25-39-140Z"/>
  <path class="cls-2" d="M1652,755l110-10-104.31-46.574C1657.02,697.4,1651.93,754.885,1652,755Z"/>
  <path class="cls-6" d="M1654,758l-9,11,1,14,17,9,8,7,7,12,83-63Z"/>
  <path class="cls-6" d="M1657,699l-5,56-10-12-31-10-17-20-11-8Z"/>
  <path class="cls-7" d="M1543,558l113,139-18-101-12,17-8,1-7-1-4-5V596l22-11-6-5-37-13Z"/>
  <path class="cls-2" d="M1567,635v-5l-11,7,4,3h3Z"/>
  <path class="cls-6" d="M1652.11,856.518L1651,881l-7,18-8,8-24,11,11,23,19-14,95-15h12C1749.01,911.971,1650.44,860.852,1652.11,856.518Z"/>
  <path class="cls-2" d="M1644,937l4,21,18,13,70-56-93,14Z"/>
  <path class="cls-6" d="M1737,917l-21,168-13-68-6-13h-15l-13-31Z"/>
</svg>
