<svg id="australia" xmlns="http://www.w3.org/2000/svg" width="3000" height="2500" viewBox="0 0 3000 2500">
  <defs>
    <style>
      .cls-1 {
        fill: #6b6b6b;
      }

      .cls-1, .cls-2, .cls-3, .cls-4, .cls-5 {
        fill-rule: evenodd;
      }

      .cls-2 {
        fill: #979491;
      }

      .cls-3 {
        fill: #575757;
      }

      .cls-4 {
        fill: #383838;
      }

      .cls-5 {
        fill: #bfbfbf;
      }
    </style>
  </defs>
  <path class="cls-1" d="M2213,1456l17,9,14-5,10-9,29,1,5-7,18-8,8,4,14-7,17-4,12,3,10,12,2,14,12-2,12-11v11l3,13,2,10-2,10,8,7s6.92-.12,10,0,6,5,6,5l10-12,6,10,10-5,12-4,9-1,8-8,28-35,15-11,8-16,8-13,3-8-3-6,7-19-7-8-5-6s-0.09-4.95,1-8-5-8-5-8l-7-3v-8l-3-7-16-13v-14l-1-10-1-9-3-6-10-7,2-15-5-8h-7l-3,17-2,17-6,15-5,8-6,1-33-26,3-8,6-10,3-7h-12l-15-2-10-4-1,8-12,3-9,11-3,12-9-4-12-8-13,8-12,9-7,8,2,7-8-7-8,12-4,6-6,7-8,9-18,2-15,6-20,12-5,17,6,12,1,7h-8v14l8,13-5,11,3,10v8l-8,9Z"/>
  <path class="cls-2" d="M2213,1457l18,8,10-4,11-8,1-2,29,1,6-7,8-58Z"/>
  <path class="cls-2" d="M2231,1438l83.37-70.38C2231,1414,2228,1418,2228,1418a5.2,5.2,0,0,0,0,3c0.48,1.74,1.1,2.3,2,4s1,7,1,7v6Z"/>
  <path class="cls-3" d="M2232,1412l68-39-67,9h-8v11l2,6Z"/>
  <path class="cls-3" d="M2310,1438l5,3,23-10,24-90Z"/>
  <path class="cls-2" d="M2304,1384l7,48,50-93-58,41Z"/>
  <path class="cls-4" d="M2341,1430l24-86,2,102-10-12Z"/>
  <path class="cls-5" d="M2370,1458l-3-109,26,96-11,11Z"/>
  <path class="cls-5" d="M2405,1496l-10-6,3-10-2-12-3-11,1-8,56-34-33,82Z"/>
  <path class="cls-3" d="M2371,1350l24,94,54-30Z"/>
  <path class="cls-2" d="M2418,1499l3,2,10-11,6,9,25-9h5l11-13-29-50Z"/>
  <path class="cls-4" d="M2480,1474l20-24-46-22Z"/>
  <path class="cls-3" d="M2501,1448l18-12-48-3Z"/>
  <path class="cls-2" d="M2519,1434l7-16-52,13Z"/>
  <path class="cls-4" d="M2475,1427l59-35,1,4,1,4-2,6-3,5-2,4Z"/>
  <path class="cls-4" d="M2535,1389l5-15-10-13-47-6Z"/>
  <path class="cls-3" d="M2482,1358l51,32-58,35Z"/>
  <path class="cls-5" d="M2478,1358l-6,74-21-9Z"/>
  <path class="cls-2" d="M2529,1359v-5l1-4-6-6-5-2-36,11Z"/>
  <path class="cls-3" d="M2517,1339l1-6-2-7-7-4-10-8-15,37Z"/>
  <path class="cls-2" d="M2499,1310v-10l-1-12-1-9-23,61Z"/>
  <path class="cls-3" d="M2496,1276l-12-8-6,53Z"/>
  <path class="cls-4" d="M2484,1262l1-12-5-6h-5l-4,17-2,62s5.74-23.36,10.12-41.17C2481.82,1270.86,2484,1262,2484,1262Z"/>
  <path class="cls-3" d="M2470,1327l10-44-6,53Z"/>
  <path class="cls-4" d="M2474,1342c0.67-.6,23-26,23-26l-17,40S2473.33,1342.6,2474,1342Z"/>
  <path class="cls-3" d="M2477,1356c-0.23-1.44-10-26-10-26l-15,84S2477.23,1357.44,2477,1356Z"/>
  <path class="cls-5" d="M2455,1306c1.4-.64,14-26,14-26l-1,45S2453.6,1306.64,2455,1306Z"/>
  <path class="cls-5" d="M2418,1277c2.7,0.69,34,26,34,26s-0.48,2.09-1.28,5.57C2446.76,1325.79,2435,1377,2435,1377S2415.3,1276.31,2418,1277Z"/>
  <path class="cls-4" d="M2454,1309l12,16-29,51Z"/>
  <path class="cls-3" d="M2465,1332l-38,61,23,20Z"/>
  <path class="cls-4" d="M2416,1277l17,100-29-54Z"/>
  <path class="cls-5" d="M2374,1349l52,41s-23.06-60.95-23-62S2374,1349,2374,1349Z"/>
  <path class="cls-3" d="M2409,1337l19,51,6-8Z"/>
  <path class="cls-3" d="M2405,1250l14,24,12-23Z"/>
  <path class="cls-4" d="M2394,1246l11,3,11,24-22-19v-8Z"/>
  <path class="cls-4" d="M2371,1272c0.33-1.11,1-7,1-7l8-9,6-2,6-1,9,68S2370.67,1273.11,2371,1272Z"/>
  <path class="cls-3" d="M2395,1257l8,60,12-43Z"/>
  <path class="cls-2" d="M2371,1275c-0.14,1.85,29,51,29,51l-28,22s-0.02-1.4-.04-3.82C2371.78,1328.95,2371.12,1273.4,2371,1275Z"/>
  <path class="cls-3" d="M2368,1279l2,68-22-79Z"/>
  <path class="cls-4" d="M2316,1292l5-6,13-10,9-6,4-3,17,67Z"/>
  <path class="cls-2" d="M2317,1296l45,39-65-21,3-8,9-14,7,5Z"/>
  <path class="cls-3" d="M2284,1328l10-12,62,19Z"/>
  <path class="cls-4" d="M2318,1367l42-30-61-5Z"/>
  <path class="cls-4" d="M2233,1379c1.7-.03,71-8,71-8l-77-9S2231.3,1379.03,2233,1379Z"/>
  <path class="cls-2" d="M2231,1347l-4,14,37,4Z"/>
  <path class="cls-3" d="M2305,1369l-39-6,18-19Z"/>
  <path class="cls-2" d="M2308,1367h8l-17-32Z"/>
  <path class="cls-4" d="M2306,1366l-19-23,11-10Z"/>
  <path class="cls-2" d="M2275,1328l11,13,10-9Z"/>
  <path class="cls-4" d="M2233,1346l29,16,21-18Z"/>
  <path class="cls-3" d="M2284,1342l-13-14-14,4-15,7-7,4Z"/>
  <path class="cls-4" d="M2290,1443l11-59,8,51Z"/>
</svg>
