<svg id="europe" xmlns="http://www.w3.org/2000/svg" width="3000" height="2500" viewBox="0 0 3000 2500">
  <defs>
    <style>
      .cls-1 {
        fill: #6b6b6b;
      }

      .cls-1, .cls-2, .cls-3, .cls-4, .cls-5, .cls-6, .cls-7 {
        fill-rule: evenodd;
      }

      .cls-2 {
        fill: #575757;
      }

      .cls-3 {
        fill: #979491;
      }

      .cls-4 {
        fill: #bfbfbf;
      }

      .cls-5, .cls-7 {
        fill: #383838;
      }

      .cls-6 {
        fill: #585858;
      }

      .cls-6, .cls-7 {
        stroke: #585858;
        stroke-width: 1px;
      }
    </style>
  </defs>
  <path id="europe-2" data-name="europe" class="cls-1" d="M1322,862l6-4,3-2h9l8-1s1.68-2.352,3.09-4.329c1.03-1.434,1.91-2.671,1.91-2.671l6-3,3-6,1-7,3-8,5-6,4-4h6l6-6,2-7,6-6,8-2,8,1,6,2,9-9,8-2,5,1,7,6,3,6,3,4,12,9,11,6,10,5,4,7,3-5,2-5-4-4-7-3-6-3-5-8-7-8-8-6-1-6,6-7s2.27-3.835,5-3a57.951,57.951,0,0,1,7,3l2,5,5,1,2,3s-0.56,5.424,2,6,10,6,10,6l11,6,6,5,6,6-2,8v5s1.67,4.344,4,5,5,4,5,4,2.71,3.975,3,6a18.274,18.274,0,0,0,2,6,38.109,38.109,0,0,1,2,5s2.09,3.091,2,4,3,2,3,2l1-6s-2.2-3.482,0-4,3.72,0.089,5-2,1.47-1.169,1-3-3-4-3-4l-2-3,1-5-2-3s-1.82-2.314-1-4a3.117,3.117,0,0,1,2-2c0.66-.343,2.1,1.286,4,2s2,0,2,0-0.69-3.286,1-5,2.35-.486,4-1,3.94-.715,8-1,4.78,0.457,7,1,1.57,3.114,5,3,3.36,1.028,4-1,0.07,1.371,1-2,2-4,2-4l-1-5-2-2s-1.22-1.8,0-5a37.971,37.971,0,0,1,3-6c2.06-1.888,4-6,4-6a4.972,4.972,0,0,1-1-3c-0.16-2.138-1.34-2.949,0-5a3.784,3.784,0,0,1,3-2l2-2,2-4s1.79-2.95,3-5a16.415,16.415,0,0,1,4-4l3-1s0.96,2.135,3,2,5,2,5,2l7,1h4s3.56,1.269,3,3a22.239,22.239,0,0,1-2,4c0.36,1.756-1.86,5.366,1,6a17.228,17.228,0,0,1,5,2l3-3,2-2-2-2-3-5,1-3,4-3,6-1,4-1s-1.6-4.523,3-5,2.07-1.066,5,0a18.1,18.1,0,0,0,3,1V746s-1.06-2.982-3-3-6-2-6-2-3.36-.583-5-1a71.89,71.89,0,0,1-7-3,3.575,3.575,0,0,0-4-1c-2.35.983-9-3-9-3l-6-6-8-11-17,1-2-2,1-3,8-2c1.67-.7-9-9-9-9l-6-6-4-9-11-1-4-2,1-27-6-1-10,1h-5v5l8,2,1,4a17.659,17.659,0,0,0-1,4,8.174,8.174,0,0,1-2,4h-4l-4-1-3-4-8,4v6s1.42,2.638,2,4a22.714,22.714,0,0,1,1,4l-2,4-4,3h-5l-4,2-2,3h-3l-4-5-9,1-7,4-5,2-4,3-5,1s-4.19-3.76-6-5-5-3-5-3l-7,3-5-3s-8.08-.161-8-3a31.724,31.724,0,0,0-1-7l1-3,3-3,1-4s-1.62-5.106-4-4a40.273,40.273,0,0,0-6,4l-1,4,3,13v3l-2,4-4,2s-2.09.384-5,1-11,4-11,4l-7,1-4,6-3,5-4,3-3,2-5,1h-3l-3,5-1,4-4,2-7,6h-5l-5,1-1,5h-7l-4-1h-6l-4,3,4,3,10,5,4,4,4,7v4l-1,5a14.818,14.818,0,0,1,0,4,14.821,14.821,0,0,0,0,4l-2,6-7,5-9-1h-5l-5,1-5-2-22,1-4,4v6l2,4-1,5-2,8-3,5-4,7,5,7,2,7c3.2,1.279,7,3,7,3l8-2,2,3,2,5Z"/>
  <path id="europothink" class="cls-1" d="M1432,661l7-4,7-5h4l6,4,3,6,3,9,2,4,2,7v4l4-2,6-3,5-3a2.836,2.836,0,0,0,3,0,7.345,7.345,0,0,0,3-3l2-9,2-7,5-4,3-2,1-4-5-8-2-7v-6l5-4,7-6s3.29-1,6-2a42.446,42.446,0,0,0,6-3,37.606,37.606,0,0,0,0-5c-0.21-1.542,1-4,1-4l3-5a20.645,20.645,0,0,0,6-1c2.08-.912,5.72-2.6,8-2s3.22,0.469,5,1a18.829,18.829,0,0,1,4,2s3.85,3.57,3,5a43.973,43.973,0,0,1-3,4,7.083,7.083,0,0,1-4,3c-2.51.544-5.66,2.914-8,4s-6,6-6,6l-2,5s-1.16,1.059,0,4,0.46,0.174,1,3,0,4,0,4l-2,2s-2.29,7.432,2,6,4.18-1.51,7-1,5.51,1,8,3,12-6,12-6,3.81,1.946,5,1,0.69-.082,3-1a13.8,13.8,0,0,1,4-1l6-13-12-14-4-28-13-23-5-1-5,3-3,3h-13l-8,1-6,5-22,12-9,11-23,20-11,5-8,4s-5.05-.284-6,2-4,8-4,8v17l2,4,4,4Z"/>
  <path class="cls-2" d="M1320,857l20-17-36-29-4,17-6,9,6,8,2,6,12,3Z"/>
  <path class="cls-2" d="M1340,836l-38-30,1-4,2-3,24-1Z"/>
  <path class="cls-3" d="M1333,799l8-2,13,1,6-6,2,9-25,16C1338.04,817.334,1333.09,799.028,1333,799Z"/>
  <path class="cls-3" d="M1342,753l11,6,5,4,4,7v11l-1,11,2,5,17-38Z"/>
  <path class="cls-2" d="M1341,751l125,19-60-52-8,8-10,1-4,8-3,3-4,4-7,2-7,1-2,2-2,3-14-1Z"/>
  <path class="cls-2" d="M1382,759c-0.32,1.064-10,23-10,23l9,8S1382.32,757.936,1382,759Z"/>
  <path class="cls-4" d="M1384,759v30l73-10Z"/>
  <path class="cls-3" d="M1463,771l-6,5-54-13Z"/>
  <path class="cls-3" d="M1406,716l2-4,4-2,7-1,3-2,4-1,6-1,4-2,2-3,1-3-2-6-1-4-1-4,1-4,4-4,3-1,2,3a22.331,22.331,0,0,1,0,4,10.633,10.633,0,0,1-2,3l-2,2v10l1,2h3a6.8,6.8,0,0,1,3,0,29.691,29.691,0,0,1,3,2l2,1,19,52Z"/>
  <path class="cls-4" d="M1411,721l56,49,9-13Z"/>
  <path class="cls-4" d="M1470,769c-0.39.522,9-10,9-10l6,23S1470.39,768.478,1470,769Z"/>
  <path class="cls-2" d="M1456,702l23,54,13-58-10,4-3,2-2,2-2,1-3-2c0.06,0.146-9.35-5.43-10-7l-3,2Z"/>
  <path class="cls-2" d="M1494,697l-13,59,53-7Z"/>
  <path class="cls-3" d="M1496,695h5l4,2,2,4,2-1,3-2,1-2a17.37,17.37,0,0,0,3-1c-0.11-.166,1.17-0.5,3,0a9.529,9.529,0,0,0,4,0l2-3,1-2,1-2-2,46Z"/>
  <path class="cls-2" d="M1528,686l-3-5-1-3,1-4a2.393,2.393,0,0,1,2-2,14.8,14.8,0,0,0,3-1h3s1.56,1.65,2,2,3,2,3,2h3l3-1,1-3s-0.49-2.286,0-3,3,4,3,4l-13,76Z"/>
  <path class="cls-2" d="M1528,697l-2,38,8,13Z"/>
  <path class="cls-4" d="M1546,667v-4l-7-2-2-1v-4h20v28l8,72Z"/>
  <path class="cls-3" d="M1537,750l10-71,16,77Z"/>
  <path class="cls-5" d="M1482,758l52-6,33,7Z"/>
  <path class="cls-2" d="M1578,793s-2.64,5.408-3,5-2,2-2,2v5l2,3,1,3-1,5-38-4Z"/>
  <path class="cls-5" d="M1535,811l41-19-34-6Z"/>
  <path class="cls-3" d="M1563,761l-25,19-56-20Z"/>
  <path class="cls-4" d="M1532,811c0.41-1.5,8-24,8-24l-58-25S1531.59,812.5,1532,811Z"/>
  <path class="cls-2" d="M1530,812l-47-47,5,25Z"/>
  <path class="cls-6" d="M1345,833l35,13-13-52-8,12-19,11Z"/>
  <path class="cls-7" d="M1306,871l73-22-37-18-1,9Z"/>
  <path id="uk" class="cls-1" d="M1304,720h13l9-9,5-8,2-8-5-5-8,2-12,7-2,5,1,6-4,7Z"/>
  <path id="engl" class="cls-1" d="M1331,735l12-12h-7l2-9,3-2-1-4a22.5,22.5,0,0,1,4-3c2.12-1.186,3.04-.3,5-1a7.194,7.194,0,0,0,3-2l-2-5-7-5-5-2a13.642,13.642,0,0,1-2-7c0.05-3.919,0-16,0-16s3.58-3.95,6-5,3.19-1.616,5-2a20.185,20.185,0,0,1,5,0l3,1-3,8,12-1-8,13,8,4,4,6,2,7,2,3,5,8,7,3,1,4-4,4v5l-2,3h-9l-8,2-6-1-3,4-4-1-3-2-1,5h-14Z"/>
  <path class="cls-3" d="M1467,687l9-8,5-1,3-1,4-4,2-12s-0.2-.842-0.55-2.34C1486.64,646.705,1474,593,1474,593Z"/>
  <path class="cls-5" d="M1499,652l-7,5-16-64,17,45,7,10Z"/>
  <path class="cls-2" d="M1505,617l-5,6-7,3-1,7-16-43Z"/>
  <path class="cls-5" d="M1517,612l-10,5-30-27Z"/>
  <path class="cls-2" d="M1519,600l-37-9,35,20v-6Z"/>
  <path class="cls-3" d="M1497,577l24,22-45-10,5-5,7-3,4-3Z"/>
  <path class="cls-5" d="M1498,575l4-3,5-4,15,30Z"/>
  <path class="cls-3" d="M1509,567h20l-6,30Z"/>
  <path class="cls-2" d="M1531,565l4-3h4l3,1s-0.36.7-.98,1.91c-3.23,6.27-13.44,26.136-16.28,31.655-0.47.914-.74,1.435-0.74,1.435Z"/>
  <path class="cls-5" d="M1544,567l-20,32,13-3,4,1,4,2s-0.61-19.519-.88-28.068C1544.05,568.535,1544,567,1544,567Z"/>
  <path class="cls-5" d="M1547,571l-1,29,1,4-2,4-6,3-9,5-6,8v8l3,4s28.54,0.533,29-1c0.37-1.219-5.54-40.981-7.98-57.207C1547.4,573.617,1547,571,1547,571Z"/>
  <path class="cls-3" d="M1558,641l-4-4h-28l-3,3a4.011,4.011,0,0,0-1,3c0.21,1.737,3,2,3,2l6-2,6,3s5.34,1.074,5,1,4-2,4-2l4-3,5-1h3Z"/>
  <path class="cls-5" d="M1471,594l-21,21,18,36Z"/>
  <path class="cls-2" d="M1466,679c0.52-3.391,1-26,1-26l-18-38s0.06,0.414.17,1.157C1450.16,622.723,1455,655,1455,655S1465.48,682.391,1466,679Z"/>
  <path class="cls-4" d="M1429,625l19-10,5,39Z"/>
  <path class="cls-5" d="M1417,635l5-7,5-2,21,26Z"/>
  <path class="cls-2" d="M1434,660l11-7-27-16v15l6,8h10Z"/>
  <path class="cls-2" d="M1331,735h12l2-4,3-1,3,2h3s0.47-1.206,1.2-3.066L1363,709l-20,14-9,9Z"/>
  <path class="cls-5" d="M1362,729l-4-1,6-17Z"/>
  <path class="cls-2" d="M1364,729l3-1,6-1s5.85-.362,6,0,2-1,2-1v-6l-16-7Z"/>
  <path class="cls-4" d="M1384,713v3l-1,2-2,1-15-6h18Z"/>
  <path class="cls-4" d="M1336,722l7,1,19-14Z"/>
  <path class="cls-5" d="M1339,714l-2,4v2l23-12-10-3-8,1-2,2,1,3Z"/>
  <path class="cls-5" d="M1366,712l5-11,6,9,5,1Z"/>
  <path class="cls-2" d="M1351,704l1-4-3-3-3-4,22,16Z"/>
  <path class="cls-2" d="M1368,708l3-7-2-6-2-5-5-5Z"/>
  <path class="cls-4" d="M1345,693l17-8,5,22Z"/>
  <path class="cls-2" d="M1336,684c0.15,1.686,2,5,2,5l1,2,5,1,17-8S1335.85,682.314,1336,684Z"/>
  <path class="cls-5" d="M1336,682l21-1,2-6,5-7-11,1Z"/>
  <path class="cls-2" d="M1352,667l-16,14-1-13Z"/>
  <path class="cls-4" d="M1354,660l-1,6-17,1,10-6,5-1h3Z"/>
  <path class="cls-4" d="M1303,720c3.04-.037,14-1,14-1l14-15S1299.96,720.037,1303,720Z"/>
  <path class="cls-5" d="M1307,710l-3,5-1,4,27-16Z"/>
  <path class="cls-2" d="M1333,695l-3,6-12,4Z"/>
  <path class="cls-5" d="M1307,708l10-2,14-12Z"/>
  <path class="cls-2" d="M1306,704l1,3,23-14-21.57,9.886C1306.93,703.572,1306,704,1306,704Z"/>
  <path class="cls-4" d="M1328,690l1,2-21,10s-2.11-1.247-1-2,8-5,8-5l5-3,5-1Z"/>
  <path class="cls-3" d="M1559,685c0.08,0.6,4,1,4,1h6l5,5,1,4,3,3,4,3-15,54S1558.92,684.4,1559,685Z"/>
  <path class="cls-2" d="M1583,704l-2,7,7-1Z"/>
  <path class="cls-2" d="M1579,718c-0.25.653-11,39-11,39l41-23S1579.25,717.347,1579,718Z"/>
  <path class="cls-5" d="M1583,718l25,14-11-14h-14Z"/>
  <path class="cls-3" d="M1570,758l41-23,31,10Z"/>
  <path class="cls-3" d="M1605,767h8l4,1,2,2v3l-2,3v2l1,3,4,1,4-2v-2l-1-4-1-3v-4l3-1,3-1,4-1,4-2-1-3,3-1a20.779,20.779,0,0,1,3-1c0.07,0.146,6,1,6,1v-3l-7-9Z"/>
  <path class="cls-4" d="M1571,759c0.8,0.225,68-12,68-12l-34,19-5-1-4-2-3,1S1570.2,758.775,1571,759Z"/>
  <path class="cls-4" d="M1591,766l-24-6s-28.46,23.045-28,22S1591,766,1591,766Z"/>
  <path class="cls-2" d="M1590,768l-48,16,38,7v-6l-1-4,2-2s2.53-.332,3-1,3-5,3-5Z"/>
  <path class="cls-2" d="M1554,583l-5-6,8,57,9-4,2-6-9-9Z"/>
</svg>
