<svg xmlns="http://www.w3.org/2000/svg" width="3000" height="2500" viewBox="0 0 3000 2500">
  <defs>
    <style>
      .cls-1, .cls-8 {
        fill: #6b6b6b;
      }

      .cls-1, .cls-10, .cls-11, .cls-12, .cls-13, .cls-14, .cls-15, .cls-2, .cls-3, .cls-4, .cls-5, .cls-6, .cls-7, .cls-8, .cls-9 {
        fill-rule: evenodd;
      }

      .cls-12, .cls-2 {
        fill: #383838;
      }

      .cls-10, .cls-3 {
        fill: #454545;
      }

      .cls-4 {
        fill: #888;
      }

      .cls-5, .cls-7 {
        fill: #585858;
      }

      .cls-6, .cls-9 {
        fill: #999;
      }

      .cls-10, .cls-11, .cls-12, .cls-7, .cls-8, .cls-9 {
        stroke: #585858;
        stroke-width: 1px;
      }

      .cls-11, .cls-14 {
        fill: #979491;
      }

      .cls-13 {
        fill: #575757;
      }

      .cls-15 {
        fill: #bfbfbf;
      }
    </style>
  </defs>
  <path class="cls-1" d="M1322,862l6-4,3-2h9l8-1s1.68-2.352,3.09-4.329c1.03-1.434,1.91-2.671,1.91-2.671l6-3,3-6,1-7,3-8,5-6,4-4h6l6-6,2-7,6-6,8-2,8,1,6,2,9-9,8-2,5,1,7,6,3,6,3,4,12,9,11,6,10,5,4,7,3-5,2-5-4-4-7-3-6-3-5-8-7-8-8-6-1-6,6-7s2.27-3.835,5-3a57.951,57.951,0,0,1,7,3l2,5,5,1,2,3s-0.56,5.424,2,6,10,6,10,6l11,6,6,5,6,6-2,8v5s1.67,4.344,4,5,5,4,5,4,2.71,3.975,3,6a18.274,18.274,0,0,0,2,6,38.109,38.109,0,0,1,2,5s2.09,3.091,2,4,3,2,3,2l1-6s-2.2-3.482,0-4,3.72,0.089,5-2,1.47-1.169,1-3-3-4-3-4l-2-3,1-5-2-3s-1.82-2.314-1-4a3.117,3.117,0,0,1,2-2c0.66-.343,2.1,1.286,4,2s2,0,2,0-0.69-3.286,1-5,2.35-.486,4-1,3.94-.715,8-1,4.78,0.457,7,1,1.57,3.114,5,3,3.36,1.028,4-1,0.07,1.371,1-2,2-4,2-4l-1-5-2-2s-1.22-1.8,0-5a37.971,37.971,0,0,1,3-6c2.06-1.888,4-6,4-6a4.972,4.972,0,0,1-1-3c-0.16-2.138-1.34-2.949,0-5a3.784,3.784,0,0,1,3-2l2-2,2-4s1.79-2.95,3-5a16.415,16.415,0,0,1,4-4l3-1s0.96,2.135,3,2,5,2,5,2l7,1h4s3.56,1.269,3,3a22.239,22.239,0,0,1-2,4c0.36,1.756-1.86,5.366,1,6a17.228,17.228,0,0,1,5,2l3-3,2-2-2-2-3-5,1-3,4-3,6-1,4-1s-1.6-4.523,3-5,2.07-1.066,5,0a18.1,18.1,0,0,0,3,1V746s-1.06-2.982-3-3-6-2-6-2-3.36-.583-5-1a71.89,71.89,0,0,1-7-3,3.575,3.575,0,0,0-4-1c-2.35.983-9-3-9-3l-6-6-8-11-17,1-2-2,1-3,8-2c1.67-.7-9-9-9-9l-6-6-4-9-11-1-4-2,1-27-6-1-10,1h-5v5l8,2,1,4a17.659,17.659,0,0,0-1,4,8.174,8.174,0,0,1-2,4h-4l-4-1-3-4-8,4v6s1.42,2.638,2,4a22.714,22.714,0,0,1,1,4l-2,4-4,3h-5l-4,2-2,3h-3l-4-5-9,1-7,4-5,2-4,3-5,1s-4.19-3.76-6-5-5-3-5-3l-7,3-5-3s-8.08-.161-8-3a31.724,31.724,0,0,0-1-7l1-3,3-3,1-4s-1.62-5.106-4-4a40.273,40.273,0,0,0-6,4l-1,4,3,13v3l-2,4-4,2s-2.09.384-5,1-11,4-11,4l-7,1-4,6-3,5-4,3-3,2-5,1h-3l-3,5-1,4-4,2-7,6h-5l-5,1-1,5h-7l-4-1h-6l-4,3,4,3,10,5,4,4,4,7v4l-1,5a14.818,14.818,0,0,1,0,4,14.821,14.821,0,0,0,0,4l-2,6-7,5-9-1h-5l-5,1-5-2-22,1-4,4v6l2,4-1,5-2,8-3,5-4,7,5,7,2,7c3.2,1.279,7,3,7,3l8-2,2,3,2,5Z"/>
  <path class="cls-1" d="M1432,661l7-4,7-5h4l6,4,3,6,3,9,2,4,2,7v4l4-2,6-3,5-3a2.836,2.836,0,0,0,3,0,7.345,7.345,0,0,0,3-3l2-9,2-7,5-4,3-2,1-4-5-8-2-7v-6l5-4,7-6s3.29-1,6-2a42.446,42.446,0,0,0,6-3,37.606,37.606,0,0,0,0-5c-0.21-1.542,1-4,1-4l3-5a20.645,20.645,0,0,0,6-1c2.08-.912,5.72-2.6,8-2s3.22,0.469,5,1a18.829,18.829,0,0,1,4,2s3.85,3.57,3,5a43.973,43.973,0,0,1-3,4,7.083,7.083,0,0,1-4,3c-2.51.544-5.66,2.914-8,4s-6,6-6,6l-2,5s-1.16,1.059,0,4,0.46,0.174,1,3,0,4,0,4l-2,2s-2.29,7.432,2,6,4.18-1.51,7-1,5.51,1,8,3,12-6,12-6,3.81,1.946,5,1,0.69-.082,3-1a13.8,13.8,0,0,1,4-1l6-13-12-14-4-28-13-23-5-1-5,3-3,3h-13l-8,1-6,5-22,12-9,11-23,20-11,5-8,4s-5.05-.284-6,2-4,8-4,8v17l2,4,4,4Z"/>
  <path class="cls-1" d="M1568,841l3-14,17-9,28-11,21,4,23,8,17-8-9-13-22-13-3-12,7-16-7-10-17-8-18-8-14-17-9-7-8-14-14-14-6-22,11-7-3-14,4-13-9-12-6-29-12-25,24,5c2.49-1.982,68.48,19.635,63,24l-26,10,3,14,19,4,6-12,9-8h17l11,6,9-12,30-9,26,3,17-2,14-9,17,3,17,6-16-18,6-14s6.75-11.672,14-8,8,23,8,23l17,22,12,9,3-20-9-9,9-17c8.85,9,14,8,14,8l12-8-10-12,21-4,8-15,35,8,28-8c4.82-6.586,26-3,26-3l14,9,19-1,18,1-21,11,29,6h23l19,3,12,5,17-8,29,6,17,10,12,6,31-10c-0.42-.538,33.27-3.852,34-3s42,7,42,7,37.02,10.172,38,10,22-3,22-3l42,10,24.87,2.131L2408,576s-6.63-14.213,2-14,33,7,33,7,25.76,5.645,33,8,49,17,49,17l12-6,19,6-3,14-57-8-14-4,6,17,19,1,17,8-13,17-20,3h-23l-12,18,18,7,13,18-2,23v17l-34-23-15-19-6-10,7-14-4-22-10-11-23-4-4,17,1,14-21,1-11-14-14-3-17,16-20,14-6,24,32,16,6-11,14,11,20,23v26l-12,38-15,7-16,15-1,17,20,15,3,24-10,7-15-20-11-18-24-25h-33l-9,14,5,17,23,4,10-7,13,6-16,15-1,14s4.39,3.941,15,8,16,15,16,15l1,19-1,21s-2.37,12.613-10,22-6.38,9.167-15,14-25,15-25,15l-14,8-10,9-13-6-12,3-12,23s2.81,4.66,14,10,6.14-7.39,13,9,8,29,8,29l-4,17-13,19-15,3a52.366,52.366,0,0,1-16-20c-5.68-12.83-12-25-12-25l-14,1c0.84,8.02-3,27-3,27s-13.06-21.31-14-30-4.26-13.52-6-23-3-23-3-23l-11,14-9,18s-19.44-54.67-20-55-5-19-5-19-13.83,1-20,5-8,6-8,6l-12,13s-15.19,12.34-21,21-10.09,11.73-19,19-9,9-9,9-4.27,1.23-6,11c-0.79,4.44-13.39,17.05-5.02,24.71S1996,1114,1996,1114c-3.51,6.23-7,6-7,6l-31-56-2-65-18-10-8,9-14-16s-10.34-11.616-14-23-34-1-34-1l-32,4s-19.29,4.115-22-7-7-23-7-23l-23,18a127.366,127.366,0,0,1-13-11c-5.86-5.824-17-26-17-26h-17s-1.6,13.168,2,25,5.27,29.761,12,31,5.04,7.566,16,10a90.721,90.721,0,0,0,21,2l14-17,16,15,13,14c0.77,11.59-6,22-6,22l-12,15s-7.89,7.39-14,10-6.84,3.92-17,9a90.232,90.232,0,0,0-17,11s-6.24,4.58-15,10-22,7-22,7l-14,9s-2.93-24.19-4-34-6.69-34.54-10-42-21-3-21-3-3.68-9.833-6-17-8-21-8-21-15.02-6.365-17-13-6-29-6-29-4.26,3.313-11,8-9,6-9,6l-13-23,27-11,10-15,4-16,1-21-25,1-23,8-18-3C1579.26,861.238,1568,841,1568,841Z"/>
  <path class="cls-1" d="M1656,698L1545,561c3.77-1.786,84.32,18.426,81,20l-19,17v11l12,6,8-1,9-15Z"/>
  <path class="cls-2" d="M1586,705l70-6L1551,571l5,16,4,21,9,16-2,9-1,10,4,8-13,6,6,23,17,16Z"/>
  <path class="cls-3" d="M1660,822l96,89,55-198Z"/>
  <path class="cls-4" d="M1567,842l12,19,20,3,25-9h27l101,58-94-94-28-10-18-3-40,19Z"/>
  <path class="cls-5" d="M1652.11,856.518L1651,881l-7,18-8,8-24,11,11,23,19-14,95-15h12C1749.01,911.971,1650.44,860.852,1652.11,856.518Z"/>
  <path class="cls-2" d="M1644,937l4,21,18,13,70-56-93,14Z"/>
  <path class="cls-2" d="M1715,1086l6.03-8.31C1740.73,1050.5,1802,966,1802,966l30,28-13,31-13,12-37,19-15,13-15,7Z"/>
  <path class="cls-5" d="M1737,917l-21,168-13-68-6-13h-15l-13-31Z"/>
  <path class="cls-5" d="M2100,744l15-37,18,63Z"/>
  <path class="cls-5" d="M2019,766l104,12-7,14Z"/>
  <path class="cls-1" d="M1868,710l86,9,48,42Z"/>
  <path class="cls-3" d="M1862,709c1.77,4.887,43,188,43,188s92.16-127.415,100-131S1860.23,704.112,1862,709Z"/>
  <path class="cls-3" d="M2237,588l-14,199Z"/>
  <path class="cls-3" d="M2116,697l93-80-15,172Z"/>
  <path class="cls-3" d="M1990,672l17-136,17-14-32,3-14-12-25-1-18,10-14,2-33-7-9,19h-19l8,10-9,8h-10l-7-6-9,17,13,9Z"/>
  <path class="cls-3" d="M2105,984s-0.93-3.044-2.5-8.166C2094.19,948.661,2068,863,2068,863l157,139-13,27,18,16,14,23-1,22-12,21-11,5-10-3c-5.06-1.07-22.82-39.66-15-38,6.17,1.31-13-3-13-3l-13,2-1,20s-20.05-38.82-11.89-49.24S2154,1036,2154,1036l-8-13c-0.19.4-25.55,46.06-19.35,32.87,0.08-.17-16.64-51.04-21.42-56.6Z"/>
  <path class="cls-5" d="M1639,600l18,97,54-119-29,10-4,8-12,5-9-8Z"/>
  <path class="cls-5" d="M1750,581l3,135,87-120-17-16-14-18-3-19-9-3-9,9-8,12,17.32,20.489C1787,570,1764,571,1764,571Z"/>
  <path class="cls-4" d="M1709,582l43,136-2-138-14,3Z"/>
  <path class="cls-4" d="M2009,536l-17,136,99-123-15-6-20-3-21,2Z"/>
  <path class="cls-4" d="M2118,692l45-128,47,53Z"/>
  <path class="cls-4" d="M1990,1120l11-14,3-12-7-9,5-11,4-8-1-7,8-7,19-17,18-20-31-121-63,104,1,68Z"/>
  <path class="cls-4" d="M1810,930l63-63-52,95-6-3-7-26Z"/>
  <path class="cls-4" d="M2260,848c0.51,2.732-47,77-47,77l77-44,3-17,15-14-14-6-12,8S2259.49,845.268,2260,848Z"/>
  <path class="cls-4" d="M2248,1009c0.1-3.11,1-78,1-78l69,21-15,22S2247.9,1012.1,2248,1009Z"/>
  <path class="cls-6" d="M2051,1014l15-149,35,111,1,7-18-2c3.41,1.273,4,2,4,2l-16,10-10,9Z"/>
  <path class="cls-6" d="M2453,702c-0.5-2.663-5-44-5-44l24,9,14,17-2,40S2453.5,704.663,2453,702Z"/>
  <path class="cls-6" d="M2407,567c1.46,2.216,43,61,43,61l32-31S2405.54,564.784,2407,567Z"/>
  <path class="cls-6" d="M2002,762c0.18,2.57-96,135-96,135l109-72S2001.82,759.43,2002,762Z"/>
  <path class="cls-6" d="M1659,699l90,25-39-140Z"/>
  <path class="cls-2" d="M1652,755l110-10-104.31-46.574C1657.02,697.4,1651.93,754.885,1652,755Z"/>
  <path class="cls-2" d="M2184,954c-2.86,9.438-68-251-68-251l143,145S2186.71,945.059,2184,954Z"/>
  <path class="cls-2" d="M2005,763l95,26-80,36Z"/>
  <path class="cls-6" d="M1763,744l-7-26,82-119Z"/>
  <path class="cls-6" d="M1844,576l22,134,135,51Z"/>
  <path class="cls-5" d="M1766,743l75-144,13,73Z"/>
  <path class="cls-4" d="M1785,947l69-269,41,171Z"/>
  <path class="cls-5" d="M1654,758l-9,11,1,14,17,9,8,7,7,12,83-63Z"/>
  <path class="cls-5" d="M1657,699l-5,56-10-12-31-10-17-20-11-8Z"/>
  <path class="cls-2" d="M1757,910l96-232-69,272-16-14-7-11Z"/>
  <path class="cls-5" d="M1811,709l43-35-99,241Z"/>
  <path class="cls-5" d="M2021,894l47-30-17,151Z"/>
  <path class="cls-5" d="M2017,826l4,66-66,106Z"/>
  <path class="cls-5" d="M1825,960c4.51-2.677,81-61,81-61l-11-47-25,21S1820.49,962.677,1825,960Z"/>
  <path class="cls-2" d="M1955,998c1.33-3.721,60-169,60-169l-107,70S1953.67,1001.72,1955,998Z"/>
  <path class="cls-2" d="M2269,812c3.67-4.65,78-114,78-114l35,34-1,23-10,34-25,17-9,11-1,18,19,12,3,24-7,7-54-61S2265.33,816.65,2269,812Z"/>
  <path class="cls-2" d="M2160,563L1992,674l97-123,16-9,35,4Z"/>
  <path class="cls-2" d="M1845,576l156,185,127,11Z"/>
  <path class="cls-6" d="M1997,674c3.98-2.349,164-106,164-106l-61,171S1993.02,676.349,1997,674Z"/>
  <path class="cls-6" d="M2023,894l-3-65,81-36Z"/>
  <path class="cls-5" d="M2072,862l-43,30,74-96Z"/>
  <path class="cls-5" d="M2184,960l-109-94,54-94Z"/>
  <path class="cls-5" d="M2248,1005l-13-4-9,3-43-43,63-48Z"/>
  <path class="cls-5" d="M2252,908l69,41,3-47-16-13-16-7Z"/>
  <path class="cls-5" d="M2261,847l-5-19,13-15,69-103-127,62-15,9Z"/>
  <path class="cls-6" d="M2214,621l125,87-138,71Z"/>
  <path class="cls-4" d="M2170,565l44,52s1.55-.81,4.26-2.221C2236.62,605.211,2308,568,2308,568l-30-9-37-7-21-4-30,5Z"/>
  <path class="cls-6" d="M2312,688l2-116-96,48Z"/>
  <path class="cls-2" d="M2353,634l-35-65-2,96,19-12Z"/>
  <path class="cls-5" d="M2377,654l-22-19-33-68,79,53-6,20,6,14h-24Z"/>
  <path class="cls-4" d="M2428,626l-24-6-76-52,82,10,33,42Z"/>
  <path class="cls-3" d="M2440,651l17,7,9-17-21-18-12,3v11Z"/>
  <path class="cls-1" d="M2148,326"/>
  <path id="africa" class="cls-1" d="M1301,933l-17,18-13,7-12,11-8,13-12,18-4,12,4,21v18l-4,14v18l4,18,14,16,12,18,34,30,29-3,18,2,33-11,22-3,14,17,27-2,9,20-6,27,16,33,18,37v18l6,12-7,21-11,23,3,19,12,39,6,26,12,33,21,34-4,18,9,8,19-6,24-3,32-14,19-27,11-16-3-15,22-15,5-18-9-17,28-28,21-21,3-29-6-18-4-22-2-17,12-30,21-27,45-45,18-60h-18l-25,12-18-7-2-14-31-34-6-17-14-16-4-20-11-13V984l-22-41-6-16-9-9-15,4h-18l-17-6-22-9-12,6-2,14-36-6-6-11-13-3-23-7,6-21-9-14-16,5-20,1-22-1-23,7-9,8-15-2-15-6-4,11-11,13-16,8Z"/>
  <path class="cls-6" d="M1238,1025l3,12-3,18-4,13v17l8,17,11,15,7,7,81-55Z"/>
  <path class="cls-7" d="M1436,981l26,173-119-83Z"/>
  <path class="cls-8" d="M1340,939l2,129,92-86Z"/>
  <path class="cls-7" d="M1457,971l-21,10,150,122,9-178-12-2-38-15-13,6v10l-8,6Z"/>
  <path class="cls-9" d="M1665,1010l-75,89,5-172,19-9,12,9,6,20,22,40Z"/>
  <path class="cls-10" d="M1624,1262l154-144,3-11-11,1h-8l-21,9-19-4-3-9v-6l-10-10-124,17Z"/>
  <path class="cls-11" d="M1685,1273l14-39,66-70,11-43-142,138Z"/>
  <path class="cls-9" d="M1462,1153l120-50,41,161Z"/>
  <path class="cls-10" d="M1644,1398l-17-135,62,16,8,19,5,21-1,19v11l-51,51Z"/>
  <path class="cls-10" d="M1343,1072l-11,89-32,5-40-40Z"/>
  <path class="cls-7" d="M1463,1157v89l17,37v11l141-27Z"/>
  <path class="cls-9" d="M1638,1403l-118,97-21-27-33-115,19-45-1-7Z"/>
  <path class="cls-12" d="M1621,1482l-19,26-33,16-18,2-27,7-6-8,3-17-4-5,119-97Z"/>
  <path class="cls-12" d="M1442,1166l21-10-119-84-12,87,16,6,15-4,23-9,19-1,10,17Z"/>
  <path class="cls-10" d="M1417,873l21,108-99-46-12-47,4-10,10,6,19-2,29-5Z"/>
  <path class="cls-7" d="M1345,833l35,13-13-52-8,12-19,11Z"/>
  <path class="cls-12" d="M1306,871l73-22-37-18-1,9Z"/>
  <path class="cls-7" d="M1239,1026l103,43-3-126-71,19-11,10-14,22-5,13-2,6Z"/>
  <path class="cls-13" d="M1320,857l20-17-36-29-4,17-6,9,6,8,2,6,12,3Z"/>
  <path class="cls-13" d="M1340,836l-38-30,1-4,2-3,24-1Z"/>
  <path class="cls-14" d="M1333,799l8-2,13,1,6-6,2,9-25,16C1338.04,817.334,1333.09,799.028,1333,799Z"/>
  <path class="cls-14" d="M1342,753l11,6,5,4,4,7v11l-1,11,2,5,17-38Z"/>
  <path class="cls-13" d="M1341,751l125,19-60-52-8,8-10,1-4,8-3,3-4,4-7,2-7,1-2,2-2,3-14-1Z"/>
  <path class="cls-13" d="M1382,759c-0.32,1.064-10,23-10,23l9,8S1382.32,757.936,1382,759Z"/>
  <path class="cls-15" d="M1384,759v30l73-10Z"/>
  <path class="cls-14" d="M1463,771l-6,5-54-13Z"/>
  <path class="cls-14" d="M1406,716l2-4,4-2,7-1,3-2,4-1,6-1,4-2,2-3,1-3-2-6-1-4-1-4,1-4,4-4,3-1,2,3a22.331,22.331,0,0,1,0,4,10.633,10.633,0,0,1-2,3l-2,2v10l1,2h3a6.8,6.8,0,0,1,3,0,29.691,29.691,0,0,1,3,2l2,1,19,52Z"/>
  <path class="cls-15" d="M1411,721l56,49,9-13Z"/>
  <path class="cls-15" d="M1470,769c-0.39.522,9-10,9-10l6,23S1470.39,768.478,1470,769Z"/>
  <path class="cls-13" d="M1456,702l23,54,13-58-10,4-3,2-2,2-2,1-3-2c0.06,0.146-9.35-5.43-10-7l-3,2Z"/>
  <path class="cls-13" d="M1494,697l-13,59,53-7Z"/>
  <path class="cls-14" d="M1496,695h5l4,2,2,4,2-1,3-2,1-2a17.37,17.37,0,0,0,3-1c-0.11-.166,1.17-0.5,3,0a9.529,9.529,0,0,0,4,0l2-3,1-2,1-2-2,46Z"/>
  <path class="cls-13" d="M1528,686l-3-5-1-3,1-4a2.393,2.393,0,0,1,2-2,14.8,14.8,0,0,0,3-1h3s1.56,1.65,2,2,3,2,3,2h3l3-1,1-3s-0.49-2.286,0-3,3,4,3,4l-13,76Z"/>
  <path class="cls-13" d="M1528,697l-2,38,8,13Z"/>
  <path class="cls-15" d="M1546,667v-4l-7-2-2-1v-4h20v28l8,72Z"/>
  <path class="cls-14" d="M1537,750l10-71,16,77Z"/>
  <path class="cls-14" d="M1559,685c0.08,0.6,4,1,4,1h6l5,5,1,4,3,3,4,3-15,54S1558.92,684.4,1559,685Z"/>
  <path class="cls-13" d="M1583,704l-2,7,7-1Z"/>
  <path class="cls-13" d="M1579,718c-0.25.653-11,39-11,39l41-23S1579.25,717.347,1579,718Z"/>
  <path class="cls-2" d="M1583,718l25,14-11-14h-14Z"/>
  <path class="cls-2" d="M1482,758l52-6,33,7Z"/>
  <path class="cls-14" d="M1570,758l41-23,31,10Z"/>
  <path class="cls-14" d="M1605,767h8l4,1,2,2v3l-2,3v2l1,3,4,1,4-2v-2l-1-4-1-3v-4l3-1,3-1,4-1,4-2-1-3,3-1a20.779,20.779,0,0,1,3-1c0.07,0.146,6,1,6,1v-3l-7-9Z"/>
  <path class="cls-15" d="M1571,759c0.8,0.225,68-12,68-12l-34,19-5-1-4-2-3,1S1570.2,758.775,1571,759Z"/>
  <path class="cls-15" d="M1591,766l-24-6s-28.46,23.045-28,22S1591,766,1591,766Z"/>
  <path class="cls-13" d="M1590,768l-48,16,38,7v-6l-1-4,2-2s2.53-.332,3-1,3-5,3-5Z"/>
  <path class="cls-13" d="M1578,793s-2.64,5.408-3,5-2,2-2,2v5l2,3,1,3-1,5-38-4Z"/>
  <path class="cls-2" d="M1535,811l41-19-34-6Z"/>
  <path class="cls-14" d="M1563,761l-25,19-56-20Z"/>
  <path class="cls-15" d="M1532,811c0.41-1.5,8-24,8-24l-58-25S1531.59,812.5,1532,811Z"/>
  <path class="cls-13" d="M1530,812l-47-47,5,25Z"/>
  <path class="cls-14" d="M1487,790l-10-13-1,2h-16Z"/>
  <path class="cls-1" d="M2213,1456l17,9,14-5,10-9,29,1,5-7,18-8,8,4,14-7,17-4,12,3,10,12,2,14,12-2,12-11v11l3,13,2,10-2,10,8,7s6.92-.12,10,0,6,5,6,5l10-12,6,10,10-5,12-4,9-1,8-8,28-35,15-11,8-16,8-13,3-8-3-6,7-19-7-8-5-6s-0.09-4.95,1-8-5-8-5-8l-7-3v-8l-3-7-16-13v-14l-1-10-1-9-3-6-10-7,2-15-5-8h-7l-3,17-2,17-6,15-5,8-6,1-33-26,3-8,6-10,3-7h-12l-15-2-10-4-1,8-12,3-9,11-3,12-9-4-12-8-13,8-12,9-7,8,2,7-8-7-8,12-4,6-6,7-8,9-18,2-15,6-20,12-5,17,6,12,1,7h-8v14l8,13-5,11,3,10v8l-8,9Z"/>
  <path class="cls-14" d="M2213,1457l18,8,10-4,11-8,1-2,29,1,6-7,8-58Z"/>
  <path class="cls-14" d="M2231,1438l83.37-70.38C2231,1414,2228,1418,2228,1418a5.2,5.2,0,0,0,0,3c0.48,1.74,1.1,2.3,2,4s1,7,1,7v6Z"/>
  <path class="cls-13" d="M2232,1412l68-39-67,9h-8v11l2,6Z"/>
  <path class="cls-13" d="M2310,1438l5,3,23-10,24-90Z"/>
  <path class="cls-14" d="M2304,1384l7,48,50-93-58,41Z"/>
  <path class="cls-2" d="M2341,1430l24-86,2,102-10-12Z"/>
  <path class="cls-15" d="M2370,1458l-3-109,26,96-11,11Z"/>
  <path class="cls-15" d="M2405,1496l-10-6,3-10-2-12-3-11,1-8,56-34-33,82Z"/>
  <path class="cls-13" d="M2371,1350l24,94,54-30Z"/>
  <path class="cls-14" d="M2418,1499l3,2,10-11,6,9,25-9h5l11-13-29-50Z"/>
  <path class="cls-2" d="M2480,1474l20-24-46-22Z"/>
  <path class="cls-13" d="M2501,1448l18-12-48-3Z"/>
  <path class="cls-14" d="M2519,1434l7-16-52,13Z"/>
  <path class="cls-2" d="M2475,1427l59-35,1,4,1,4-2,6-3,5-2,4Z"/>
  <path class="cls-2" d="M2535,1389l5-15-10-13-47-6Z"/>
  <path class="cls-13" d="M2482,1358l51,32-58,35Z"/>
  <path class="cls-15" d="M2478,1358l-6,74-21-9Z"/>
  <path class="cls-14" d="M2529,1359v-5l1-4-6-6-5-2-36,11Z"/>
  <path class="cls-13" d="M2517,1339l1-6-2-7-7-4-10-8-15,37Z"/>
  <path class="cls-14" d="M2499,1310v-10l-1-12-1-9-23,61Z"/>
  <path class="cls-13" d="M2496,1276l-12-8-6,53Z"/>
  <path class="cls-2" d="M2484,1262l1-12-5-6h-5l-4,17-2,62s5.74-23.36,10.12-41.17C2481.82,1270.86,2484,1262,2484,1262Z"/>
  <path class="cls-13" d="M2470,1327l10-44-6,53Z"/>
  <path class="cls-2" d="M2474,1342c0.67-.6,23-26,23-26l-17,40S2473.33,1342.6,2474,1342Z"/>
  <path class="cls-13" d="M2477,1356c-0.23-1.44-10-26-10-26l-15,84S2477.23,1357.44,2477,1356Z"/>
  <path class="cls-15" d="M2455,1306c1.4-.64,14-26,14-26l-1,45S2453.6,1306.64,2455,1306Z"/>
  <path class="cls-15" d="M2418,1277c2.7,0.69,34,26,34,26s-0.48,2.09-1.28,5.57C2446.76,1325.79,2435,1377,2435,1377S2415.3,1276.31,2418,1277Z"/>
  <path class="cls-2" d="M2454,1309l12,16-29,51Z"/>
  <path class="cls-13" d="M2465,1332l-38,61,23,20Z"/>
  <path class="cls-2" d="M2416,1277l17,100-29-54Z"/>
  <path class="cls-15" d="M2374,1349l52,41s-23.06-60.95-23-62S2374,1349,2374,1349Z"/>
  <path class="cls-13" d="M2409,1337l19,51,6-8Z"/>
  <path class="cls-13" d="M2405,1250l14,24,12-23Z"/>
  <path class="cls-2" d="M2394,1246l11,3,11,24-22-19v-8Z"/>
  <path class="cls-2" d="M2371,1272c0.33-1.11,1-7,1-7l8-9,6-2,6-1,9,68S2370.67,1273.11,2371,1272Z"/>
  <path class="cls-13" d="M2395,1257l8,60,12-43Z"/>
  <path class="cls-14" d="M2371,1275c-0.14,1.85,29,51,29,51l-28,22s-0.02-1.4-.04-3.82C2371.78,1328.95,2371.12,1273.4,2371,1275Z"/>
  <path class="cls-13" d="M2368,1279l2,68-22-79Z"/>
  <path class="cls-2" d="M2316,1292l5-6,13-10,9-6,4-3,17,67Z"/>
  <path class="cls-14" d="M2317,1296l45,39-65-21,3-8,9-14,7,5Z"/>
  <path class="cls-13" d="M2284,1328l10-12,62,19Z"/>
  <path class="cls-2" d="M2318,1367l42-30-61-5Z"/>
  <path class="cls-2" d="M2233,1379c1.7-.03,71-8,71-8l-77-9S2231.3,1379.03,2233,1379Z"/>
  <path class="cls-14" d="M2231,1347l-4,14,37,4Z"/>
  <path class="cls-13" d="M2305,1369l-39-6,18-19Z"/>
  <path class="cls-14" d="M2308,1367h8l-17-32Z"/>
  <path class="cls-2" d="M2306,1366l-19-23,11-10Z"/>
  <path class="cls-14" d="M2275,1328l11,13,10-9Z"/>
  <path class="cls-2" d="M2233,1346l29,16,21-18Z"/>
  <path class="cls-13" d="M2284,1342l-13-14-14,4-15,7-7,4Z"/>
  <path class="cls-2" d="M2290,1443l11-59,8,51Z"/>
  <path class="cls-1" d="M761,1207l-9-11,1-8,7-14,10-13,9-13,2-16,2-11-8-13,10-7c4.815,0.31,11-11,11-11s6.142-11.45,13-13,1.916,5.67,10,0,10-8,10-8l-2,17-4,9a12.961,12.961,0,0,1,12,4l3-13s5.589-10.46,11-10,7.631-2.99,11,2-4,11-4,11l16,1a34.132,34.132,0,0,1,8-5c4.236-1.75,13-2,13-2l12,7,11,8,7,12,14,7s-8.019,11.12,3,8,21,9,21,9l21,3,10,8,3,15-2,14c6.434-.9,7,13,7,13s15.03-1.52,15,3-3.3,5.61,1,6,11-10,11-10l11,9,7,4s0.68,15.24,5,13,10-10,10-10,3.8,7.09,10,7,8.68,2.54,16,2,20,2,20,2l11,8s0.94,10.54,7,14,8,13,8,13c-3.07,5.29-8,19-8,19s-0.37,1.56-6,10-13,18-13,18l-9,11s-4.76,4.11-4,9-0.84-8.28,2,9,5.85,15.96,1,27-3.11,7-5,14-4,14-4,14l-10,15-10,6s-9.7,3-14,4-23,14-23,14-3.92,4.74-2,9a104,104,0,0,1,4,12l-5,11s-5.2,14.61-8,18-2.69,3.57-7,12-9,16-9,16l-12,12c-7.135-2.42-21-6-21-6,2.368,5.16,3,17,3,17s8.52,6.02,8,6-2,14-2,14l-9,5H957l-9-1a14.326,14.326,0,0,0,3,11l-6,7-9-1-8,3,4,12,8,6-4,8a29.483,29.483,0,0,1,2,9l-6,8s-0.474,6.08,4,9,6.99,1.25,8,5,2,7,2,7l-7,14c4.236,5.35-1,12-1,12l5,10c-4.631,7.09-7,9-7,9l-9,5-14-7-9-8-12-14-6-14v-8l5-7,6-6-15-1c1.524-6.14-4-7-4-7v-8h10l3-7c0.5-1.56-2-15-2-15l-10-1-12-13,6-9s-5.018-6.97-5-7,0.827,3.52-4-7-6.688-5.54-4-12,1.642-2.15,5-8,7-8,7-8l-6-5s1-14.74,1-19-5-13-5-13l-9-19,5-12,4-10-9-21,2-12v-13l-2-10-4-10-4-17-15-15-21-7-13-10a10.266,10.266,0,0,1-4-9c0.5-5.91,2-8,2-8l-7-11-18-32-3-10-9-9-10-8,3-10Z"/>
  <path class="cls-13" d="M926,1676l14-8-2-14s-15.467-25.69-17-29S926,1676,926,1676Z"/>
  <path class="cls-14" d="M939.074,1652.33A37.683,37.683,0,0,1,944,1630l1-6-5-8-34-28Z"/>
  <path class="cls-14" d="M923,1673l-11-64-25,19v12l7,13,17,16Z"/>
  <path class="cls-13" d="M897,1614l14-7-21-11-12,3,1,6,5,4Z"/>
  <path class="cls-2" d="M932,1605l6-7-4-9-33-12Z"/>
  <path class="cls-13" d="M939,1579s-35.492-14.02-37-12,33,21,33,21Z"/>
  <path class="cls-2" d="M869,1562l50-63-30,75-10,4Z"/>
  <path class="cls-2" d="M891,1594l4-25,16,37Z"/>
  <path class="cls-13" d="M930,1570l-33-6,41-78Z"/>
  <path class="cls-14" d="M945,1557l-11,3,10-67s4.007,34.34,5.957,51.06c0.628,5.38,1.043,8.94,1.043,8.94Z"/>
  <path class="cls-13" d="M957,1543l11,2,10-6,1-13-9-8-21-9Z"/>
  <path class="cls-14" d="M874,1550l42-50-43,11-9,7-4,11,6,15Z"/>
  <path class="cls-2" d="M867,1506l5,3,66-21-74-10,3,13-1,10Z"/>
  <path class="cls-2" d="M972,1516l-21-8,17-17Z"/>
  <path class="cls-13" d="M991,1506l-19-4s4.972-2.77,5.233-5.85S1031,1436,1031,1436l-5,17-12,24-12,19Z"/>
  <path class="cls-14" d="M970,1393l57,40-54,64Z"/>
  <path class="cls-2" d="M950,1501c0.118-.88.808-6.85,1.814-15.63C955.4,1454.07,963,1387,963,1387l7,99S949.462,1505.02,950,1501Z"/>
  <path class="cls-2" d="M945,1489l10-110-98,76Z"/>
  <path class="cls-13" d="M864,1477l-9-19,65,25Z"/>
  <path class="cls-13" d="M855,1448l102-74-105,36,10,20Z"/>
  <path class="cls-13" d="M1028,1430l-2-13,12-7,16-6,17-5-107-17Z"/>
  <path class="cls-13" d="M1077,1394l6-10,5-9,5-19,6-14-68-19Z"/>
  <path class="cls-14" d="M965,1378s1.6-1.23,4.3-3.29c14.355-10.99,59.7-45.71,59.7-45.71l44,64Z"/>
  <path class="cls-2" d="M963,1368c-0.366-3.75-9-60-9-60l77,11S963.366,1371.75,963,1368Z"/>
  <path class="cls-13" d="M948,1314l12,55-105,39Z"/>
  <path class="cls-14" d="M853,1399l90-91-98,43,6,20,5,16Z"/>
  <path class="cls-13" d="M842,1344l98-38-130,20,19,8Z"/>
  <path class="cls-2" d="M1095,1339l-3-27-56,8Z"/>
  <path class="cls-14" d="M1031,1313l62-5,20-21,17-37Z"/>
  <path class="cls-13" d="M1019,1313l111-68-7-8-6-10-3-7-12-6-14-4Z"/>
  <path class="cls-13" d="M957,1306l59,6-2-75Z"/>
  <path class="cls-2" d="M1021,1232s1.05,75.3,0,76,61-96,61-96l-8-3-10-1-4-6-6,6-4,4-6-3v-9l-7-6-10-9-8,10Z"/>
  <path class="cls-14" d="M952,1306l61-73,4-36Z"/>
  <path class="cls-13" d="M943,1302l71-105v-8l-6-3-10,2v-11l-5-3Z"/>
  <path class="cls-2" d="M856,1313c4.645,1.78,85-10,85-10l23-60S851.355,1311.22,856,1313Z"/>
  <path class="cls-14" d="M888,1278l78-41,27-70Z"/>
  <path class="cls-13" d="M853,1305c2.269-4.54,139-143,139-143v-15l-8-10-23-2S850.731,1309.54,853,1305Z"/>
  <path class="cls-14" d="M851,1318l-44,9-11-9-5-11,2-6Z"/>
  <path class="cls-2" d="M851,1311l-56-13-28-48Z"/>
  <path class="cls-14" d="M850,1302l-103-75,6-10,6-8Z"/>
  <path class="cls-2" d="M897,1221l-43,80-91-93Z"/>
  <path class="cls-2" d="M904,1216l55-80-6-9-17-1-1-11-13-6Z"/>
  <path class="cls-13" d="M874,1090l18-7,15,10,11,7-16,115Z"/>
  <path class="cls-14" d="M866,1090l-11-2,6-9-7-6-10,5-5,7-3,9,61,118Z"/>
  <path class="cls-13" d="M893,1218l-57-115-36,105Z"/>
  <path class="cls-2" d="M829,1097l-8-2,4-8,2-8v-9l-13,10-5-4-12,10-4,10,21,50Z"/>
  <path class="cls-13" d="M788,1101l-12,5,6,15,1,7-2,7v8l14,54s-4.986-68.39-6.542-89.72C788.17,1103.34,788,1101,788,1101Z"/>
  <path class="cls-14" d="M801,1198l-10-95,25,54Z"/>
  <path class="cls-2" d="M781,1150l-13,16-14,18-2,13,8,7,36,5Z"/>
  <path class="cls-1" d="M385,659l14-3,23-15,8-8,15-3,4,9,14-1,12-7,9-4,7,8s11.993,1.97,16,1,7.656-.17,12,2,11,8,11,8l9,17-6,16-3,9s0.019,8.2,0,14,0,10,0,10l-8,3s-2.475,6.188,4,7,7.886,4.555,12,7,7.464-.689,8,5-9,10-9,10a21,21,0,0,0-10-2,33.422,33.422,0,0,0-7,1l-5,11-2,13-10,21-7,5-11,13s-3.357-8.395-3,9,1,23,1,23l1,16,7,8a58.288,58.288,0,0,0,8,7c4.674,3.37,4.377,1.53,6,7a55.4,55.4,0,0,1,2,10l-2,11c2.57,5.6,4.965,17.113,6,22s-0.24,6.267,2,14-0.662,1.068,3,10-2.579,11.512,4,11c9.669-.753,6,4,6,4,0.378,0.171,17.113-22.167,13.871-23.633L524,919l-1-10-4-9v-9s6.72-3.48,8,1,7,19,7,19,2.319,8.03,2,12,0.929,15.19,8,20,10,8,10,8l7,8,4,12v19l-2,8v8l18,15,19,5,12,6,9,11,9,2,13-8,10-3s3.4,1.58,8,10,19,16,19,16l13,7,8-5,10,3,2,19,13,16s8.918,6.89,14,8,14,4,14,4l7-10-24-12-7-12,5-22,2-14-14-7-16,2-10,1,6-15,1-8,10-20,3-10-11,1-10,1-9,5-3,8-11,7-9,5-11-1s-2.928.86-9-2-12.558-3.79-13-9-3.29-10.953-3-11,2-15,2-15l4-17,4-16,7-16c4.8-1.535,15.766-2.779,23-9s6.624-6.224,16-7,20,6,20,6l10-6s4.194-7.469,8-7,10,2,10,2l13,5,9-1,8-2,2,12s-4.836,10.75-4,15,5,11,5,11l8,6a43.3,43.3,0,0,1,10-7l-1-19V911l-2-12,7-9s2.646-2,12-9,3.761-4.215,12-10,10-8,10-8,7.206-2.605,11-7a26.711,26.711,0,0,0,5-8s-0.464,1.316,2-8-1.267-4.006,4-6,2.61,0.394,7-5,7.486-5.04,9-10-3.678-1.73,3-7a55.511,55.511,0,0,1,15-8h9l14-8,4-7,8-11a93.472,93.472,0,0,0,9-4c4.332-2.252,12-8,12-8l12-2-6,10c-0.058,4.693-1.123,6.18,3,6s12-5,12-5l17-9,7-7c-4.5.954-16-2-16-2s-6.41-6.4-4-11,8-11,8-11-2.082-8.778-12-5a58.833,58.833,0,0,0-16,9l-8-5,8-7s4.8-2.379,14-9,5.271-1.713,12-3,7.819-2.5,13-1,7.026,3.543,12,4,12-4,12-4,5.89-3.613,11-3,4.46,2.365,10-1,11-7,11-7l12-8,2-10s-3.07-6.426-9-9-4.36-2.115-9-6-8-7-8-7l-4-19c-0.3-4.024,0-15,0-15l-17,9s-1.211.55-6,5-4.707,4.461-9,5-7-7-7-7c1.559-4.94,5-18,5-18-6.605-3.919-17-10-17-10a85.1,85.1,0,0,0-16-1c-8.753.3-18,8-18,8-1.139,6.141-1.074,5.227-3,10a33.055,33.055,0,0,1-6,9l-5,6-5,13-5,10-10,5-12,6c-3.413,1.583-5,14-5,14l-8,9c-4.9,4.944-6.906,7.442-11,6s-9.225.953-7-6,8-21,8-21l2-9-14-1-14-4c-6.768-1.224-18-11-18-11l-8-10,5-11s10.319-10.352,15-14,10.692-9.663,15-10,0.116,1.237,11-2,13.808-2.641,20-5,11.068-5.708,16-8,12-6,12-6l11-7a55.064,55.064,0,0,0,11,0c5.062-.647,19-6,19-6l7-7,6-7-7-10-10,3s-8.239,3.957-13,8-14,9-14,9l-9-9v-9l4-9-4-9s-7.5-4.056-13,0-3.511,2.322-7,7-9,17-9,17c-4.667,1.048-14,6-14,6H847s-5.352,4.913-11,5-4.827-4.721-10-5a27.8,27.8,0,0,1-9-2l-8-3s-0.912.645-9,0a21.774,21.774,0,0,0-14,4c-7.341,2.364-16,8-16,8s0.64-6.065-8-5-12-1-12-1l-8-1-2-11s-4.826-4.777-9-5-20,3-20,3H698l-14-4-17,4s-11.319-2.511-16-1-11,3-11,3l-7,4s-8.332,5.112-11,3-11-10-11-10l-22-3-29-1-20-2-18-1-20,5-25,6-7,6-15,3-12,8,1,11c-4.8.494-19,1-19,1l-9,5,14,5-9,9-17,1-17,6-8,3-13,12-2,11,11,2,6,8S378.609,662.222,385,659Z"/>
  <path class="cls-1" d="M754,1113l6-10-13-7-10-4-7-11,6-38-13-7-26,4-21-10,34,37,3,16,11,17,12,7Z"/>
  <path class="cls-2" d="M706,1015l-8,21-24-9Z"/>
  <path class="cls-13" d="M717,985l-4,13-6,10-35,16,11-23,4-8,8-7h8Z"/>
  <path class="cls-2" d="M616,1043l38-33v24s-8.4,8.52-11.363,5.93S631,1046,631,1046Z"/>
  <path class="cls-2" d="M613,1036l34-25-16-7Z"/>
  <path class="cls-13" d="M564,1008l20,14,23,8,23-28Z"/>
  <path class="cls-14" d="M563,999l2-9-1-17-7-18,69.09,40,6.91,4-69,6Z"/>
  <path class="cls-2" d="M629,986l2-14,3-19,6-20-99,8,88,54v-9Z"/>
  <path class="cls-2" d="M774,950l-10-8-6-12,2-7,4-8-4-8L734,773l81,96-34,29v12l2,10-1,10,3,9-1,7Z"/>
  <path class="cls-2" d="M387,660l15-4,27-22,14-3,5,8,14,1,23-12,40-68L421,607l-16-1-15,6-13,4-8,8-5,9,2,9,14,1,2,10-2,8Z"/>
  <path class="cls-2" d="M481,803l9-2,7-9,7-6,136-13L506,877l-23-21-1-16Z"/>
  <path class="cls-2" d="M1015,630l-10,6-9,5-45,63,93-10,3-10-12-10-11-3-5-11V650l-1-14Z"/>
  <path class="cls-2" d="M958,716l-6-8,18.131-2.292L1039,697l-13,12-7,3-12-1-7,6-8,3-11-3Z"/>
  <path class="cls-13" d="M929,735l25-19-69-17Z"/>
  <path class="cls-14" d="M881,691l66,19-34-54-5,13-14,6-10,5Z"/>
  <path class="cls-13" d="M918,649l29,55,36-56-8-7,6-14-14-12-19-3-15,4-5,9Z"/>
  <path class="cls-2" d="M932,737l5,5,11-8,12-5,5,5-7,10v7l7,6,10,4-11,9-13,6-10,5,1-10,4-8-12,5-9,4-10,5-72-49Z"/>
  <path class="cls-13" d="M816,866l11-4,10-11,3-15-91-54Z"/>
  <path class="cls-14" d="M848,832l-6,2-85-51,119,20-17,11-1,8Z"/>
  <path class="cls-14" d="M884,804l7-3,11-6,6-15-69-50Z"/>
  <path class="cls-2" d="M758,782l80-46,37,63Z"/>
  <path class="cls-2" d="M757,775l75-39,29-62Z"/>
  <path class="cls-15" d="M852,708l-9,17,81,8-44-38-11,9-6,6Z"/>
  <path class="cls-15" d="M757,908L729,779,672,912l18-2,9,6,8-3,11-10,9-2,10,10,13-2Z"/>
  <path class="cls-13" d="M640,934l4-9,11-2,10-6,57-134Z"/>
  <path class="cls-13" d="M539,941l101-10,1-148Z"/>
  <path class="cls-2" d="M647,775l-3,148,74-140Z"/>
  <path class="cls-2" d="M538,940l-10.608,15.912C526.54,957.189,526,958,526,958l-7-3-4-2,3-7-5-9-3-8V918l-5-16v-9l2-8s-3.047-3.3-2-5,56-42,56-42l-33,53-7,1-3,8,2,9,8,12,9,13Z"/>
  <path class="cls-14" d="M541,937l-2-5-2-3s-1.843-8.925-2-11-0.362-10.9-1-12-6-11-6-11l35-54-20.388,88.966Z"/>
  <path class="cls-2" d="M640,776L546,928l22-96Z"/>
  <path class="cls-15" d="M513,923c1.044,0.639-3.841-14.862-2-10"/>
  <path class="cls-15" d="M746,778L859,673l-18-4-21-10-10-15Z"/>
  <path class="cls-15" d="M506,781l113-14-83-24-13-2-9,5v9l-2,8Z"/>
  <path class="cls-13" d="M542,739l93,29,16-28Z"/>
  <path class="cls-13" d="M725,779l80-134L647,771Z"/>
  <path class="cls-15" d="M642,764L753,621l55,19Z"/>
  <path class="cls-2" d="M817,637s17.434-20.718,21-23-81,3-81,3Z"/>
  <path class="cls-13" d="M845,611l17-3,22-6,23-12,12-8h16l14-6,9-15-6-7-19,6-14,12-11-6-3-11,7-9-11-11-16,8-6,11-3,6-9,4-15,4-6-3-88,48Z"/>
  <path class="cls-15" d="M766,576c4.426-3.95,24-14,24-14s13.255,1.794,16,1,14,4,14,4l10,3-81,45S761.574,579.95,766,576Z"/>
  <path class="cls-13" d="M764,570l-8-3-11,2-6-6-2-9-7-3-15,1-16,4L676,713l12.481-20.281Z"/>
  <path class="cls-2" d="M691,553l-9-4-13,6-10-2-17,3-13,5-8,3,49,150Z"/>
  <path class="cls-2" d="M548,736l110,1,11-19Z"/>
  <path class="cls-13" d="M609,553l10,12,45,149L549,733Z"/>
  <path class="cls-15" d="M542,732l-10-7-7-3-5-7,7-3,4.988-9.976L605,556Z"/>
  <path class="cls-13" d="M532,548l25,99,48-95H591l-29-3H543Z"/>
  <path class="cls-15" d="M486,630l46-75,22,96-25-4-16-12-10,2-11,1Z"/>
  <path class="cls-2" d="M528,704l24-49-21-4,6,11-6,14-2,11Z"/>
  <path class="cls-13" d="M419,607l9-9-13-6,9-4,15-2,7-2-3-9,13-8,12-1,9-9,47-11,6,7Z"/>
  <path class="cls-13" d="M701,1062l-43-46-4,20,17,21,20,10Z"/>
  <path class="cls-1" d="M1304,720h13l9-9,5-8,2-8-5-5-8,2-12,7-2,5,1,6-4,7Z"/>
  <path class="cls-1" d="M1331,735l12-12h-7l2-9,3-2-1-4a22.5,22.5,0,0,1,4-3c2.12-1.186,3.04-.3,5-1a7.194,7.194,0,0,0,3-2l-2-5-7-5-5-2a13.642,13.642,0,0,1-2-7c0.05-3.919,0-16,0-16s3.58-3.95,6-5,3.19-1.616,5-2a20.185,20.185,0,0,1,5,0l3,1-3,8,12-1-8,13,8,4,4,6,2,7,2,3,5,8,7,3,1,4-4,4v5l-2,3h-9l-8,2-6-1-3,4-4-1-3-2-1,5h-14Z"/>
  <path class="cls-14" d="M1543,558l113,139-18-101-12,17-8,1-7-1-4-5V596l22-11-6-5-37-13Z"/>
  <path class="cls-14" d="M1467,687l9-8,5-1,3-1,4-4,2-12s-0.2-.842-0.55-2.34C1486.64,646.705,1474,593,1474,593Z"/>
  <path class="cls-2" d="M1499,652l-7,5-16-64,17,45,7,10Z"/>
  <path class="cls-13" d="M1505,617l-5,6-7,3-1,7-16-43Z"/>
  <path class="cls-2" d="M1517,612l-10,5-30-27Z"/>
  <path class="cls-13" d="M1519,600l-37-9,35,20v-6Z"/>
  <path class="cls-14" d="M1497,577l24,22-45-10,5-5,7-3,4-3Z"/>
  <path class="cls-2" d="M1498,575l4-3,5-4,15,30Z"/>
  <path class="cls-14" d="M1509,567h20l-6,30Z"/>
  <path class="cls-13" d="M1531,565l4-3h4l3,1s-0.36.7-.98,1.91c-3.23,6.27-13.44,26.136-16.28,31.655-0.47.914-.74,1.435-0.74,1.435Z"/>
  <path class="cls-2" d="M1544,567l-20,32,13-3,4,1,4,2s-0.61-19.519-.88-28.068C1544.05,568.535,1544,567,1544,567Z"/>
  <path class="cls-2" d="M1547,571l-1,29,1,4-2,4-6,3-9,5-6,8v8l3,4s28.54,0.533,29-1c0.37-1.219-5.54-40.981-7.98-57.207C1547.4,573.617,1547,571,1547,571Z"/>
  <path class="cls-13" d="M1554,583l-5-6,8,57,9-4,2-6-9-9Z"/>
  <path class="cls-2" d="M1567,635v-5l-11,7,4,3h3Z"/>
  <path class="cls-14" d="M1558,641l-4-4h-28l-3,3a4.011,4.011,0,0,0-1,3c0.21,1.737,3,2,3,2l6-2,6,3s5.34,1.074,5,1,4-2,4-2l4-3,5-1h3Z"/>
  <path class="cls-2" d="M1471,594l-21,21,18,36Z"/>
  <path class="cls-13" d="M1466,679c0.52-3.391,1-26,1-26l-18-38s0.06,0.414.17,1.157C1450.16,622.723,1455,655,1455,655S1465.48,682.391,1466,679Z"/>
  <path class="cls-15" d="M1429,625l19-10,5,39Z"/>
  <path class="cls-2" d="M1417,635l5-7,5-2,21,26Z"/>
  <path class="cls-13" d="M1434,660l11-7-27-16v15l6,8h10Z"/>
  <path class="cls-13" d="M1331,735h12l2-4,3-1,3,2h3s0.47-1.206,1.2-3.066L1363,709l-20,14-9,9Z"/>
  <path class="cls-2" d="M1362,729l-4-1,6-17Z"/>
  <path class="cls-13" d="M1364,729l3-1,6-1s5.85-.362,6,0,2-1,2-1v-6l-16-7Z"/>
  <path class="cls-15" d="M1384,713v3l-1,2-2,1-15-6h18Z"/>
  <path class="cls-15" d="M1336,722l7,1,19-14Z"/>
  <path class="cls-2" d="M1339,714l-2,4v2l23-12-10-3-8,1-2,2,1,3Z"/>
  <path class="cls-2" d="M1366,712l5-11,6,9,5,1Z"/>
  <path class="cls-13" d="M1351,704l1-4-3-3-3-4,22,16Z"/>
  <path class="cls-13" d="M1368,708l3-7-2-6-2-5-5-5Z"/>
  <path class="cls-15" d="M1345,693l17-8,5,22Z"/>
  <path class="cls-13" d="M1336,684c0.15,1.686,2,5,2,5l1,2,5,1,17-8S1335.85,682.314,1336,684Z"/>
  <path class="cls-2" d="M1336,682l21-1,2-6,5-7-11,1Z"/>
  <path class="cls-13" d="M1352,667l-16,14-1-13Z"/>
  <path class="cls-15" d="M1354,660l-1,6-17,1,10-6,5-1h3Z"/>
  <path class="cls-15" d="M1303,720c3.04-.037,14-1,14-1l14-15S1299.96,720.037,1303,720Z"/>
  <path class="cls-2" d="M1307,710l-3,5-1,4,27-16Z"/>
  <path class="cls-13" d="M1333,695l-3,6-12,4Z"/>
  <path class="cls-2" d="M1307,708l10-2,14-12Z"/>
  <path class="cls-13" d="M1306,704l1,3,23-14-21.57,9.886C1306.93,703.572,1306,704,1306,704Z"/>
  <path class="cls-15" d="M1328,690l1,2-21,10s-2.11-1.247-1-2,8-5,8-5l5-3,5-1Z"/>
</svg>
