<svg id="south_america" data-name="south america" xmlns="http://www.w3.org/2000/svg" width="3000" height="2500" viewBox="0 0 3000 2500">
  <defs>
    <style>
      .cls-1 {
        fill: #6b6b6b;
      }

      .cls-1, .cls-2, .cls-3, .cls-4 {
        fill-rule: evenodd;
      }

      .cls-2 {
        fill: #575757;
      }

      .cls-3 {
        fill: #979491;
      }

      .cls-4 {
        fill: #383838;
      }
    </style>
  </defs>
  <path class="cls-1" d="M761,1207l-9-11,1-8,7-14,10-13,9-13,2-16,2-11-8-13,10-7c4.815,0.31,11-11,11-11s6.142-11.45,13-13,1.916,5.67,10,0,10-8,10-8l-2,17-4,9a12.961,12.961,0,0,1,12,4l3-13s5.589-10.46,11-10,7.631-2.99,11,2-4,11-4,11l16,1a34.132,34.132,0,0,1,8-5c4.236-1.75,13-2,13-2l12,7,11,8,7,12,14,7s-8.019,11.12,3,8,21,9,21,9l21,3,10,8,3,15-2,14c6.434-.9,7,13,7,13s15.03-1.52,15,3-3.3,5.61,1,6,11-10,11-10l11,9,7,4s0.68,15.24,5,13,10-10,10-10,3.8,7.09,10,7,8.68,2.54,16,2,20,2,20,2l11,8s0.94,10.54,7,14,8,13,8,13c-3.07,5.29-8,19-8,19s-0.37,1.56-6,10-13,18-13,18l-9,11s-4.76,4.11-4,9-0.84-8.28,2,9,5.85,15.96,1,27-3.11,7-5,14-4,14-4,14l-10,15-10,6s-9.7,3-14,4-23,14-23,14-3.92,4.74-2,9a104,104,0,0,1,4,12l-5,11s-5.2,14.61-8,18-2.69,3.57-7,12-9,16-9,16l-12,12c-7.135-2.42-21-6-21-6,2.368,5.16,3,17,3,17s8.52,6.02,8,6-2,14-2,14l-9,5H957l-9-1a14.326,14.326,0,0,0,3,11l-6,7-9-1-8,3,4,12,8,6-4,8a29.483,29.483,0,0,1,2,9l-6,8s-0.474,6.08,4,9,6.99,1.25,8,5,2,7,2,7l-7,14c4.236,5.35-1,12-1,12l5,10c-4.631,7.09-7,9-7,9l-9,5-14-7-9-8-12-14-6-14v-8l5-7,6-6-15-1c1.524-6.14-4-7-4-7v-8h10l3-7c0.5-1.56-2-15-2-15l-10-1-12-13,6-9s-5.018-6.97-5-7,0.827,3.52-4-7-6.688-5.54-4-12,1.642-2.15,5-8,7-8,7-8l-6-5s1-14.74,1-19-5-13-5-13l-9-19,5-12,4-10-9-21,2-12v-13l-2-10-4-10-4-17-15-15-21-7-13-10a10.266,10.266,0,0,1-4-9c0.5-5.91,2-8,2-8l-7-11-18-32-3-10-9-9-10-8,3-10Z"/>
  <path class="cls-2" d="M926,1676l14-8-2-14s-15.467-25.69-17-29S926,1676,926,1676Z"/>
  <path class="cls-3" d="M939.074,1652.33A37.683,37.683,0,0,1,944,1630l1-6-5-8-34-28Z"/>
  <path class="cls-3" d="M923,1673l-11-64-25,19v12l7,13,17,16Z"/>
  <path class="cls-2" d="M897,1614l14-7-21-11-12,3,1,6,5,4Z"/>
  <path class="cls-4" d="M932,1605l6-7-4-9-33-12Z"/>
  <path class="cls-2" d="M939,1579s-35.492-14.02-37-12,33,21,33,21Z"/>
  <path class="cls-4" d="M869,1562l50-63-30,75-10,4Z"/>
  <path class="cls-4" d="M891,1594l4-25,16,37Z"/>
  <path class="cls-2" d="M930,1570l-33-6,41-78Z"/>
  <path class="cls-3" d="M945,1557l-11,3,10-67s4.007,34.34,5.957,51.06c0.628,5.38,1.043,8.94,1.043,8.94Z"/>
  <path class="cls-2" d="M957,1543l11,2,10-6,1-13-9-8-21-9Z"/>
  <path class="cls-3" d="M874,1550l42-50-43,11-9,7-4,11,6,15Z"/>
  <path class="cls-4" d="M867,1506l5,3,66-21-74-10,3,13-1,10Z"/>
  <path class="cls-4" d="M972,1516l-21-8,17-17Z"/>
  <path class="cls-2" d="M991,1506l-19-4s4.972-2.77,5.233-5.85S1031,1436,1031,1436l-5,17-12,24-12,19Z"/>
  <path class="cls-3" d="M970,1393l57,40-54,64Z"/>
  <path class="cls-4" d="M950,1501c0.118-.88.808-6.85,1.814-15.63C955.4,1454.07,963,1387,963,1387l7,99S949.462,1505.02,950,1501Z"/>
  <path class="cls-4" d="M945,1489l10-110-98,76Z"/>
  <path class="cls-2" d="M864,1477l-9-19,65,25Z"/>
  <path class="cls-2" d="M855,1448l102-74-105,36,10,20Z"/>
  <path class="cls-2" d="M1028,1430l-2-13,12-7,16-6,17-5-107-17Z"/>
  <path class="cls-2" d="M1077,1394l6-10,5-9,5-19,6-14-68-19Z"/>
  <path class="cls-3" d="M965,1378s1.6-1.23,4.3-3.29c14.355-10.99,59.7-45.71,59.7-45.71l44,64Z"/>
  <path class="cls-4" d="M963,1368c-0.366-3.75-9-60-9-60l77,11S963.366,1371.75,963,1368Z"/>
  <path class="cls-2" d="M948,1314l12,55-105,39Z"/>
  <path class="cls-3" d="M853,1399l90-91-98,43,6,20,5,16Z"/>
  <path class="cls-2" d="M842,1344l98-38-130,20,19,8Z"/>
  <path class="cls-4" d="M1095,1339l-3-27-56,8Z"/>
  <path class="cls-3" d="M1031,1313l62-5,20-21,17-37Z"/>
  <path class="cls-2" d="M1019,1313l111-68-7-8-6-10-3-7-12-6-14-4Z"/>
  <path class="cls-2" d="M957,1306l59,6-2-75Z"/>
  <path class="cls-4" d="M1021,1232s1.05,75.3,0,76,61-96,61-96l-8-3-10-1-4-6-6,6-4,4-6-3v-9l-7-6-10-9-8,10Z"/>
  <path class="cls-3" d="M952,1306l61-73,4-36Z"/>
  <path class="cls-2" d="M943,1302l71-105v-8l-6-3-10,2v-11l-5-3Z"/>
  <path class="cls-4" d="M856,1313c4.645,1.78,85-10,85-10l23-60S851.355,1311.22,856,1313Z"/>
  <path class="cls-3" d="M888,1278l78-41,27-70Z"/>
  <path class="cls-2" d="M853,1305c2.269-4.54,139-143,139-143v-15l-8-10-23-2S850.731,1309.54,853,1305Z"/>
  <path class="cls-3" d="M851,1318l-44,9-11-9-5-11,2-6Z"/>
  <path class="cls-4" d="M851,1311l-56-13-28-48Z"/>
  <path class="cls-3" d="M850,1302l-103-75,6-10,6-8Z"/>
  <path class="cls-4" d="M897,1221l-43,80-91-93Z"/>
  <path class="cls-4" d="M904,1216l55-80-6-9-17-1-1-11-13-6Z"/>
  <path class="cls-2" d="M874,1090l18-7,15,10,11,7-16,115Z"/>
  <path class="cls-3" d="M866,1090l-11-2,6-9-7-6-10,5-5,7-3,9,61,118Z"/>
  <path class="cls-2" d="M893,1218l-57-115-36,105Z"/>
  <path class="cls-4" d="M829,1097l-8-2,4-8,2-8v-9l-13,10-5-4-12,10-4,10,21,50Z"/>
  <path class="cls-2" d="M788,1101l-12,5,6,15,1,7-2,7v8l14,54s-4.986-68.39-6.542-89.72C788.17,1103.34,788,1101,788,1101Z"/>
  <path class="cls-3" d="M801,1198l-10-95,25,54Z"/>
  <path class="cls-4" d="M781,1150l-13,16-14,18-2,13,8,7,36,5Z"/>
</svg>
